<svg version="1.1" xmlns="http://www.w3.org/2000/svg" viewBox="0 0 32 32" style="shape-rendering: crispEdges"><rect x="0" y="0" width="32" height="32" fill="hsl(65,43.24374735355377%,29.432274459395558%)"/><rect x="0" y="0" width="4" height="4" fill="hsl(91,76.02567221038043%,45.900877949316055%)"/><rect x="4" y="0" width="4" height="4" fill="hsl(91,76.02567221038043%,45.900877949316055%)"/><rect x="12" y="0" width="4" height="4" fill="hsl(91,76.02567221038043%,45.900877949316055%)"/><rect x="16" y="0" width="4" height="4" fill="hsl(91,76.02567221038043%,45.900877949316055%)"/><rect x="24" y="0" width="4" height="4" fill="hsl(91,76.02567221038043%,45.900877949316055%)"/><rect x="28" y="0" width="4" height="4" fill="hsl(91,76.02567221038043%,45.900877949316055%)"/><rect x="8" y="4" width="4" height="4" fill="hsl(327,64.54646521247923%,50.35078851506114%)"/><rect x="12" y="4" width="4" height="4" fill="hsl(327,64.54646521247923%,50.35078851506114%)"/><rect x="16" y="4" width="4" height="4" fill="hsl(327,64.54646521247923%,50.35078851506114%)"/><rect x="20" y="4" width="4" height="4" fill="hsl(327,64.54646521247923%,50.35078851506114%)"/><rect x="8" y="8" width="4" height="4" fill="hsl(91,76.02567221038043%,45.900877949316055%)"/><rect x="12" y="8" width="4" height="4" fill="hsl(91,76.02567221038043%,45.900877949316055%)"/><rect x="16" y="8" width="4" height="4" fill="hsl(91,76.02567221038043%,45.900877949316055%)"/><rect x="20" y="8" width="4" height="4" fill="hsl(91,76.02567221038043%,45.900877949316055%)"/><rect x="8" y="12" width="4" height="4" fill="hsl(91,76.02567221038043%,45.900877949316055%)"/><rect x="12" y="12" width="4" height="4" fill="hsl(91,76.02567221038043%,45.900877949316055%)"/><rect x="16" y="12" width="4" height="4" fill="hsl(91,76.02567221038043%,45.900877949316055%)"/><rect x="20" y="12" width="4" height="4" fill="hsl(91,76.02567221038043%,45.900877949316055%)"/><rect x="4" y="16" width="4" height="4" fill="hsl(327,64.54646521247923%,50.35078851506114%)"/><rect x="8" y="16" width="4" height="4" fill="hsl(91,76.02567221038043%,45.900877949316055%)"/><rect x="20" y="16" width="4" height="4" fill="hsl(91,76.02567221038043%,45.900877949316055%)"/><rect x="24" y="16" width="4" height="4" fill="hsl(327,64.54646521247923%,50.35078851506114%)"/><rect x="0" y="20" width="4" height="4" fill="hsl(91,76.02567221038043%,45.900877949316055%)"/><rect x="4" y="20" width="4" height="4" fill="hsl(91,76.02567221038043%,45.900877949316055%)"/><rect x="8" y="20" width="4" height="4" fill="hsl(91,76.02567221038043%,45.900877949316055%)"/><rect x="12" y="20" width="4" height="4" fill="hsl(91,76.02567221038043%,45.900877949316055%)"/><rect x="16" y="20" width="4" height="4" fill="hsl(91,76.02567221038043%,45.900877949316055%)"/><rect x="20" y="20" width="4" height="4" fill="hsl(91,76.02567221038043%,45.900877949316055%)"/><rect x="24" y="20" width="4" height="4" fill="hsl(91,76.02567221038043%,45.900877949316055%)"/><rect x="28" y="20" width="4" height="4" fill="hsl(91,76.02567221038043%,45.900877949316055%)"/><rect x="0" y="24" width="4" height="4" fill="hsl(91,76.02567221038043%,45.900877949316055%)"/><rect x="8" y="24" width="4" height="4" fill="hsl(327,64.54646521247923%,50.35078851506114%)"/><rect x="20" y="24" width="4" height="4" fill="hsl(327,64.54646521247923%,50.35078851506114%)"/><rect x="28" y="24" width="4" height="4" fill="hsl(91,76.02567221038043%,45.900877949316055%)"/><rect x="8" y="28" width="4" height="4" fill="hsl(91,76.02567221038043%,45.900877949316055%)"/><rect x="12" y="28" width="4" height="4" fill="hsl(91,76.02567221038043%,45.900877949316055%)"/><rect x="16" y="28" width="4" height="4" fill="hsl(91,76.02567221038043%,45.900877949316055%)"/><rect x="20" y="28" width="4" height="4" fill="hsl(91,76.02567221038043%,45.900877949316055%)"/></svg>