<svg version="1.1" xmlns="http://www.w3.org/2000/svg" viewBox="0 0 32 32" style="shape-rendering: crispEdges"><rect x="0" y="0" width="32" height="32" fill="hsl(315,55.19349243491888%,55.707426206208766%)"/><rect x="0" y="0" width="4" height="4" fill="hsl(136,55.254803681746125%,56.326047936454415%)"/><rect x="4" y="0" width="4" height="4" fill="hsl(136,55.254803681746125%,56.326047936454415%)"/><rect x="12" y="0" width="4" height="4" fill="hsl(75,64.78413089178503%,54.67074360931292%)"/><rect x="16" y="0" width="4" height="4" fill="hsl(75,64.78413089178503%,54.67074360931292%)"/><rect x="24" y="0" width="4" height="4" fill="hsl(136,55.254803681746125%,56.326047936454415%)"/><rect x="28" y="0" width="4" height="4" fill="hsl(136,55.254803681746125%,56.326047936454415%)"/><rect x="0" y="4" width="4" height="4" fill="hsl(75,64.78413089178503%,54.67074360931292%)"/><rect x="4" y="4" width="4" height="4" fill="hsl(75,64.78413089178503%,54.67074360931292%)"/><rect x="8" y="4" width="4" height="4" fill="hsl(75,64.78413089178503%,54.67074360931292%)"/><rect x="12" y="4" width="4" height="4" fill="hsl(136,55.254803681746125%,56.326047936454415%)"/><rect x="16" y="4" width="4" height="4" fill="hsl(136,55.254803681746125%,56.326047936454415%)"/><rect x="20" y="4" width="4" height="4" fill="hsl(75,64.78413089178503%,54.67074360931292%)"/><rect x="24" y="4" width="4" height="4" fill="hsl(75,64.78413089178503%,54.67074360931292%)"/><rect x="28" y="4" width="4" height="4" fill="hsl(75,64.78413089178503%,54.67074360931292%)"/><rect x="4" y="8" width="4" height="4" fill="hsl(75,64.78413089178503%,54.67074360931292%)"/><rect x="8" y="8" width="4" height="4" fill="hsl(75,64.78413089178503%,54.67074360931292%)"/><rect x="20" y="8" width="4" height="4" fill="hsl(75,64.78413089178503%,54.67074360931292%)"/><rect x="24" y="8" width="4" height="4" fill="hsl(75,64.78413089178503%,54.67074360931292%)"/><rect x="8" y="12" width="4" height="4" fill="hsl(75,64.78413089178503%,54.67074360931292%)"/><rect x="20" y="12" width="4" height="4" fill="hsl(75,64.78413089178503%,54.67074360931292%)"/><rect x="0" y="16" width="4" height="4" fill="hsl(136,55.254803681746125%,56.326047936454415%)"/><rect x="4" y="16" width="4" height="4" fill="hsl(75,64.78413089178503%,54.67074360931292%)"/><rect x="8" y="16" width="4" height="4" fill="hsl(75,64.78413089178503%,54.67074360931292%)"/><rect x="12" y="16" width="4" height="4" fill="hsl(75,64.78413089178503%,54.67074360931292%)"/><rect x="16" y="16" width="4" height="4" fill="hsl(75,64.78413089178503%,54.67074360931292%)"/><rect x="20" y="16" width="4" height="4" fill="hsl(75,64.78413089178503%,54.67074360931292%)"/><rect x="24" y="16" width="4" height="4" fill="hsl(75,64.78413089178503%,54.67074360931292%)"/><rect x="28" y="16" width="4" height="4" fill="hsl(136,55.254803681746125%,56.326047936454415%)"/><rect x="0" y="20" width="4" height="4" fill="hsl(75,64.78413089178503%,54.67074360931292%)"/><rect x="8" y="20" width="4" height="4" fill="hsl(75,64.78413089178503%,54.67074360931292%)"/><rect x="20" y="20" width="4" height="4" fill="hsl(75,64.78413089178503%,54.67074360931292%)"/><rect x="28" y="20" width="4" height="4" fill="hsl(75,64.78413089178503%,54.67074360931292%)"/><rect x="0" y="24" width="4" height="4" fill="hsl(75,64.78413089178503%,54.67074360931292%)"/><rect x="8" y="24" width="4" height="4" fill="hsl(75,64.78413089178503%,54.67074360931292%)"/><rect x="12" y="24" width="4" height="4" fill="hsl(75,64.78413089178503%,54.67074360931292%)"/><rect x="16" y="24" width="4" height="4" fill="hsl(75,64.78413089178503%,54.67074360931292%)"/><rect x="20" y="24" width="4" height="4" fill="hsl(75,64.78413089178503%,54.67074360931292%)"/><rect x="28" y="24" width="4" height="4" fill="hsl(75,64.78413089178503%,54.67074360931292%)"/><rect x="0" y="28" width="4" height="4" fill="hsl(75,64.78413089178503%,54.67074360931292%)"/><rect x="8" y="28" width="4" height="4" fill="hsl(75,64.78413089178503%,54.67074360931292%)"/><rect x="12" y="28" width="4" height="4" fill="hsl(136,55.254803681746125%,56.326047936454415%)"/><rect x="16" y="28" width="4" height="4" fill="hsl(136,55.254803681746125%,56.326047936454415%)"/><rect x="20" y="28" width="4" height="4" fill="hsl(75,64.78413089178503%,54.67074360931292%)"/><rect x="28" y="28" width="4" height="4" fill="hsl(75,64.78413089178503%,54.67074360931292%)"/></svg>