<svg version="1.1" xmlns="http://www.w3.org/2000/svg" viewBox="0 0 32 32" style="shape-rendering: crispEdges"><rect x="0" y="0" width="32" height="32" fill="hsl(329,62.43003195151687%,51.41451543895528%)"/><rect x="8" y="0" width="4" height="4" fill="hsl(296,80.47696498222649%,37.81485449289903%)"/><rect x="20" y="0" width="4" height="4" fill="hsl(296,80.47696498222649%,37.81485449289903%)"/><rect x="0" y="4" width="4" height="4" fill="hsl(296,80.47696498222649%,37.81485449289903%)"/><rect x="4" y="4" width="4" height="4" fill="hsl(73,81.38313571922481%,40.26501801563427%)"/><rect x="8" y="4" width="4" height="4" fill="hsl(296,80.47696498222649%,37.81485449289903%)"/><rect x="20" y="4" width="4" height="4" fill="hsl(296,80.47696498222649%,37.81485449289903%)"/><rect x="24" y="4" width="4" height="4" fill="hsl(73,81.38313571922481%,40.26501801563427%)"/><rect x="28" y="4" width="4" height="4" fill="hsl(296,80.47696498222649%,37.81485449289903%)"/><rect x="4" y="8" width="4" height="4" fill="hsl(296,80.47696498222649%,37.81485449289903%)"/><rect x="8" y="8" width="4" height="4" fill="hsl(296,80.47696498222649%,37.81485449289903%)"/><rect x="12" y="8" width="4" height="4" fill="hsl(296,80.47696498222649%,37.81485449289903%)"/><rect x="16" y="8" width="4" height="4" fill="hsl(296,80.47696498222649%,37.81485449289903%)"/><rect x="20" y="8" width="4" height="4" fill="hsl(296,80.47696498222649%,37.81485449289903%)"/><rect x="24" y="8" width="4" height="4" fill="hsl(296,80.47696498222649%,37.81485449289903%)"/><rect x="4" y="12" width="4" height="4" fill="hsl(296,80.47696498222649%,37.81485449289903%)"/><rect x="8" y="12" width="4" height="4" fill="hsl(296,80.47696498222649%,37.81485449289903%)"/><rect x="20" y="12" width="4" height="4" fill="hsl(296,80.47696498222649%,37.81485449289903%)"/><rect x="24" y="12" width="4" height="4" fill="hsl(296,80.47696498222649%,37.81485449289903%)"/><rect x="4" y="16" width="4" height="4" fill="hsl(296,80.47696498222649%,37.81485449289903%)"/><rect x="8" y="16" width="4" height="4" fill="hsl(73,81.38313571922481%,40.26501801563427%)"/><rect x="20" y="16" width="4" height="4" fill="hsl(73,81.38313571922481%,40.26501801563427%)"/><rect x="24" y="16" width="4" height="4" fill="hsl(296,80.47696498222649%,37.81485449289903%)"/><rect x="0" y="20" width="4" height="4" fill="hsl(296,80.47696498222649%,37.81485449289903%)"/><rect x="4" y="20" width="4" height="4" fill="hsl(296,80.47696498222649%,37.81485449289903%)"/><rect x="8" y="20" width="4" height="4" fill="hsl(73,81.38313571922481%,40.26501801563427%)"/><rect x="20" y="20" width="4" height="4" fill="hsl(73,81.38313571922481%,40.26501801563427%)"/><rect x="24" y="20" width="4" height="4" fill="hsl(296,80.47696498222649%,37.81485449289903%)"/><rect x="28" y="20" width="4" height="4" fill="hsl(296,80.47696498222649%,37.81485449289903%)"/><rect x="0" y="24" width="4" height="4" fill="hsl(73,81.38313571922481%,40.26501801563427%)"/><rect x="8" y="24" width="4" height="4" fill="hsl(73,81.38313571922481%,40.26501801563427%)"/><rect x="20" y="24" width="4" height="4" fill="hsl(73,81.38313571922481%,40.26501801563427%)"/><rect x="28" y="24" width="4" height="4" fill="hsl(73,81.38313571922481%,40.26501801563427%)"/><rect x="0" y="28" width="4" height="4" fill="hsl(296,80.47696498222649%,37.81485449289903%)"/><rect x="4" y="28" width="4" height="4" fill="hsl(296,80.47696498222649%,37.81485449289903%)"/><rect x="12" y="28" width="4" height="4" fill="hsl(73,81.38313571922481%,40.26501801563427%)"/><rect x="16" y="28" width="4" height="4" fill="hsl(73,81.38313571922481%,40.26501801563427%)"/><rect x="24" y="28" width="4" height="4" fill="hsl(296,80.47696498222649%,37.81485449289903%)"/><rect x="28" y="28" width="4" height="4" fill="hsl(296,80.47696498222649%,37.81485449289903%)"/></svg>