<svg version="1.1" xmlns="http://www.w3.org/2000/svg" viewBox="0 0 32 32" style="shape-rendering: crispEdges"><rect x="0" y="0" width="32" height="32" fill="hsl(149,95.97768775187433%,33.05697796167806%)"/><rect x="0" y="0" width="4" height="4" fill="hsl(93,76.8640795070678%,55.48626588424668%)"/><rect x="8" y="0" width="4" height="4" fill="hsl(269,56.32689033634961%,52.084626525174826%)"/><rect x="12" y="0" width="4" height="4" fill="hsl(269,56.32689033634961%,52.084626525174826%)"/><rect x="16" y="0" width="4" height="4" fill="hsl(269,56.32689033634961%,52.084626525174826%)"/><rect x="20" y="0" width="4" height="4" fill="hsl(269,56.32689033634961%,52.084626525174826%)"/><rect x="28" y="0" width="4" height="4" fill="hsl(93,76.8640795070678%,55.48626588424668%)"/><rect x="0" y="4" width="4" height="4" fill="hsl(269,56.32689033634961%,52.084626525174826%)"/><rect x="4" y="4" width="4" height="4" fill="hsl(269,56.32689033634961%,52.084626525174826%)"/><rect x="8" y="4" width="4" height="4" fill="hsl(269,56.32689033634961%,52.084626525174826%)"/><rect x="20" y="4" width="4" height="4" fill="hsl(269,56.32689033634961%,52.084626525174826%)"/><rect x="24" y="4" width="4" height="4" fill="hsl(269,56.32689033634961%,52.084626525174826%)"/><rect x="28" y="4" width="4" height="4" fill="hsl(269,56.32689033634961%,52.084626525174826%)"/><rect x="4" y="8" width="4" height="4" fill="hsl(269,56.32689033634961%,52.084626525174826%)"/><rect x="12" y="8" width="4" height="4" fill="hsl(269,56.32689033634961%,52.084626525174826%)"/><rect x="16" y="8" width="4" height="4" fill="hsl(269,56.32689033634961%,52.084626525174826%)"/><rect x="24" y="8" width="4" height="4" fill="hsl(269,56.32689033634961%,52.084626525174826%)"/><rect x="0" y="12" width="4" height="4" fill="hsl(269,56.32689033634961%,52.084626525174826%)"/><rect x="4" y="12" width="4" height="4" fill="hsl(269,56.32689033634961%,52.084626525174826%)"/><rect x="12" y="12" width="4" height="4" fill="hsl(269,56.32689033634961%,52.084626525174826%)"/><rect x="16" y="12" width="4" height="4" fill="hsl(269,56.32689033634961%,52.084626525174826%)"/><rect x="24" y="12" width="4" height="4" fill="hsl(269,56.32689033634961%,52.084626525174826%)"/><rect x="28" y="12" width="4" height="4" fill="hsl(269,56.32689033634961%,52.084626525174826%)"/><rect x="0" y="16" width="4" height="4" fill="hsl(269,56.32689033634961%,52.084626525174826%)"/><rect x="4" y="16" width="4" height="4" fill="hsl(269,56.32689033634961%,52.084626525174826%)"/><rect x="24" y="16" width="4" height="4" fill="hsl(269,56.32689033634961%,52.084626525174826%)"/><rect x="28" y="16" width="4" height="4" fill="hsl(269,56.32689033634961%,52.084626525174826%)"/><rect x="0" y="20" width="4" height="4" fill="hsl(269,56.32689033634961%,52.084626525174826%)"/><rect x="4" y="20" width="4" height="4" fill="hsl(93,76.8640795070678%,55.48626588424668%)"/><rect x="24" y="20" width="4" height="4" fill="hsl(93,76.8640795070678%,55.48626588424668%)"/><rect x="28" y="20" width="4" height="4" fill="hsl(269,56.32689033634961%,52.084626525174826%)"/><rect x="12" y="24" width="4" height="4" fill="hsl(269,56.32689033634961%,52.084626525174826%)"/><rect x="16" y="24" width="4" height="4" fill="hsl(269,56.32689033634961%,52.084626525174826%)"/><rect x="8" y="28" width="4" height="4" fill="hsl(269,56.32689033634961%,52.084626525174826%)"/><rect x="12" y="28" width="4" height="4" fill="hsl(93,76.8640795070678%,55.48626588424668%)"/><rect x="16" y="28" width="4" height="4" fill="hsl(93,76.8640795070678%,55.48626588424668%)"/><rect x="20" y="28" width="4" height="4" fill="hsl(269,56.32689033634961%,52.084626525174826%)"/></svg>