<svg version="1.1" xmlns="http://www.w3.org/2000/svg" viewBox="0 0 32 32" style="shape-rendering: crispEdges"><rect x="0" y="0" width="32" height="32" fill="hsl(279,60.8223957195878%,41.99375867610797%)"/><rect x="0" y="0" width="4" height="4" fill="hsl(64,58.67869509384036%,60.45200345106423%)"/><rect x="4" y="0" width="4" height="4" fill="hsl(64,58.67869509384036%,60.45200345106423%)"/><rect x="8" y="0" width="4" height="4" fill="hsl(64,58.67869509384036%,60.45200345106423%)"/><rect x="20" y="0" width="4" height="4" fill="hsl(64,58.67869509384036%,60.45200345106423%)"/><rect x="24" y="0" width="4" height="4" fill="hsl(64,58.67869509384036%,60.45200345106423%)"/><rect x="28" y="0" width="4" height="4" fill="hsl(64,58.67869509384036%,60.45200345106423%)"/><rect x="0" y="4" width="4" height="4" fill="hsl(64,58.67869509384036%,60.45200345106423%)"/><rect x="8" y="4" width="4" height="4" fill="hsl(64,58.67869509384036%,60.45200345106423%)"/><rect x="12" y="4" width="4" height="4" fill="hsl(64,58.67869509384036%,60.45200345106423%)"/><rect x="16" y="4" width="4" height="4" fill="hsl(64,58.67869509384036%,60.45200345106423%)"/><rect x="20" y="4" width="4" height="4" fill="hsl(64,58.67869509384036%,60.45200345106423%)"/><rect x="28" y="4" width="4" height="4" fill="hsl(64,58.67869509384036%,60.45200345106423%)"/><rect x="4" y="12" width="4" height="4" fill="hsl(64,58.67869509384036%,60.45200345106423%)"/><rect x="12" y="12" width="4" height="4" fill="hsl(64,58.67869509384036%,60.45200345106423%)"/><rect x="16" y="12" width="4" height="4" fill="hsl(64,58.67869509384036%,60.45200345106423%)"/><rect x="24" y="12" width="4" height="4" fill="hsl(64,58.67869509384036%,60.45200345106423%)"/><rect x="0" y="20" width="4" height="4" fill="hsl(64,58.67869509384036%,60.45200345106423%)"/><rect x="12" y="20" width="4" height="4" fill="hsl(64,58.67869509384036%,60.45200345106423%)"/><rect x="16" y="20" width="4" height="4" fill="hsl(64,58.67869509384036%,60.45200345106423%)"/><rect x="28" y="20" width="4" height="4" fill="hsl(64,58.67869509384036%,60.45200345106423%)"/><rect x="4" y="24" width="4" height="4" fill="hsl(64,58.67869509384036%,60.45200345106423%)"/><rect x="12" y="24" width="4" height="4" fill="hsl(152,47.76252598501742%,58.70196497999132%)"/><rect x="16" y="24" width="4" height="4" fill="hsl(152,47.76252598501742%,58.70196497999132%)"/><rect x="24" y="24" width="4" height="4" fill="hsl(64,58.67869509384036%,60.45200345106423%)"/><rect x="0" y="28" width="4" height="4" fill="hsl(152,47.76252598501742%,58.70196497999132%)"/><rect x="4" y="28" width="4" height="4" fill="hsl(64,58.67869509384036%,60.45200345106423%)"/><rect x="12" y="28" width="4" height="4" fill="hsl(64,58.67869509384036%,60.45200345106423%)"/><rect x="16" y="28" width="4" height="4" fill="hsl(64,58.67869509384036%,60.45200345106423%)"/><rect x="24" y="28" width="4" height="4" fill="hsl(64,58.67869509384036%,60.45200345106423%)"/><rect x="28" y="28" width="4" height="4" fill="hsl(152,47.76252598501742%,58.70196497999132%)"/></svg>