<svg version="1.1" xmlns="http://www.w3.org/2000/svg" viewBox="0 0 32 32" style="shape-rendering: crispEdges"><rect x="0" y="0" width="32" height="32" fill="hsl(37,60.70388128049672%,50.41971377795562%)"/><rect x="4" y="0" width="4" height="4" fill="hsl(268,69.35240097343922%,63.19105753209442%)"/><rect x="12" y="0" width="4" height="4" fill="hsl(268,69.35240097343922%,63.19105753209442%)"/><rect x="16" y="0" width="4" height="4" fill="hsl(268,69.35240097343922%,63.19105753209442%)"/><rect x="24" y="0" width="4" height="4" fill="hsl(268,69.35240097343922%,63.19105753209442%)"/><rect x="4" y="4" width="4" height="4" fill="hsl(268,69.35240097343922%,63.19105753209442%)"/><rect x="24" y="4" width="4" height="4" fill="hsl(268,69.35240097343922%,63.19105753209442%)"/><rect x="4" y="8" width="4" height="4" fill="hsl(268,69.35240097343922%,63.19105753209442%)"/><rect x="8" y="8" width="4" height="4" fill="hsl(268,69.35240097343922%,63.19105753209442%)"/><rect x="20" y="8" width="4" height="4" fill="hsl(268,69.35240097343922%,63.19105753209442%)"/><rect x="24" y="8" width="4" height="4" fill="hsl(268,69.35240097343922%,63.19105753209442%)"/><rect x="0" y="12" width="4" height="4" fill="hsl(77,76.44610654562712%,59.695095708593726%)"/><rect x="4" y="12" width="4" height="4" fill="hsl(268,69.35240097343922%,63.19105753209442%)"/><rect x="8" y="12" width="4" height="4" fill="hsl(77,76.44610654562712%,59.695095708593726%)"/><rect x="12" y="12" width="4" height="4" fill="hsl(268,69.35240097343922%,63.19105753209442%)"/><rect x="16" y="12" width="4" height="4" fill="hsl(268,69.35240097343922%,63.19105753209442%)"/><rect x="20" y="12" width="4" height="4" fill="hsl(77,76.44610654562712%,59.695095708593726%)"/><rect x="24" y="12" width="4" height="4" fill="hsl(268,69.35240097343922%,63.19105753209442%)"/><rect x="28" y="12" width="4" height="4" fill="hsl(77,76.44610654562712%,59.695095708593726%)"/><rect x="12" y="16" width="4" height="4" fill="hsl(268,69.35240097343922%,63.19105753209442%)"/><rect x="16" y="16" width="4" height="4" fill="hsl(268,69.35240097343922%,63.19105753209442%)"/><rect x="4" y="20" width="4" height="4" fill="hsl(77,76.44610654562712%,59.695095708593726%)"/><rect x="12" y="20" width="4" height="4" fill="hsl(268,69.35240097343922%,63.19105753209442%)"/><rect x="16" y="20" width="4" height="4" fill="hsl(268,69.35240097343922%,63.19105753209442%)"/><rect x="24" y="20" width="4" height="4" fill="hsl(77,76.44610654562712%,59.695095708593726%)"/><rect x="0" y="24" width="4" height="4" fill="hsl(268,69.35240097343922%,63.19105753209442%)"/><rect x="8" y="24" width="4" height="4" fill="hsl(77,76.44610654562712%,59.695095708593726%)"/><rect x="12" y="24" width="4" height="4" fill="hsl(77,76.44610654562712%,59.695095708593726%)"/><rect x="16" y="24" width="4" height="4" fill="hsl(77,76.44610654562712%,59.695095708593726%)"/><rect x="20" y="24" width="4" height="4" fill="hsl(77,76.44610654562712%,59.695095708593726%)"/><rect x="28" y="24" width="4" height="4" fill="hsl(268,69.35240097343922%,63.19105753209442%)"/><rect x="0" y="28" width="4" height="4" fill="hsl(268,69.35240097343922%,63.19105753209442%)"/><rect x="4" y="28" width="4" height="4" fill="hsl(268,69.35240097343922%,63.19105753209442%)"/><rect x="24" y="28" width="4" height="4" fill="hsl(268,69.35240097343922%,63.19105753209442%)"/><rect x="28" y="28" width="4" height="4" fill="hsl(268,69.35240097343922%,63.19105753209442%)"/></svg>