<svg version="1.1" xmlns="http://www.w3.org/2000/svg" viewBox="0 0 32 32" style="shape-rendering: crispEdges"><rect x="0" y="0" width="32" height="32" fill="hsl(196,84.06987861730158%,49.761960189789534%)"/><rect x="8" y="0" width="4" height="4" fill="hsl(244,84.89308868534863%,51.36615647934377%)"/><rect x="20" y="0" width="4" height="4" fill="hsl(244,84.89308868534863%,51.36615647934377%)"/><rect x="8" y="4" width="4" height="4" fill="hsl(82,61.76049259491265%,70.5148039618507%)"/><rect x="12" y="4" width="4" height="4" fill="hsl(244,84.89308868534863%,51.36615647934377%)"/><rect x="16" y="4" width="4" height="4" fill="hsl(244,84.89308868534863%,51.36615647934377%)"/><rect x="20" y="4" width="4" height="4" fill="hsl(82,61.76049259491265%,70.5148039618507%)"/><rect x="0" y="8" width="4" height="4" fill="hsl(82,61.76049259491265%,70.5148039618507%)"/><rect x="4" y="8" width="4" height="4" fill="hsl(244,84.89308868534863%,51.36615647934377%)"/><rect x="24" y="8" width="4" height="4" fill="hsl(244,84.89308868534863%,51.36615647934377%)"/><rect x="28" y="8" width="4" height="4" fill="hsl(82,61.76049259491265%,70.5148039618507%)"/><rect x="4" y="12" width="4" height="4" fill="hsl(244,84.89308868534863%,51.36615647934377%)"/><rect x="8" y="12" width="4" height="4" fill="hsl(82,61.76049259491265%,70.5148039618507%)"/><rect x="20" y="12" width="4" height="4" fill="hsl(82,61.76049259491265%,70.5148039618507%)"/><rect x="24" y="12" width="4" height="4" fill="hsl(244,84.89308868534863%,51.36615647934377%)"/><rect x="4" y="16" width="4" height="4" fill="hsl(244,84.89308868534863%,51.36615647934377%)"/><rect x="8" y="16" width="4" height="4" fill="hsl(244,84.89308868534863%,51.36615647934377%)"/><rect x="12" y="16" width="4" height="4" fill="hsl(244,84.89308868534863%,51.36615647934377%)"/><rect x="16" y="16" width="4" height="4" fill="hsl(244,84.89308868534863%,51.36615647934377%)"/><rect x="20" y="16" width="4" height="4" fill="hsl(244,84.89308868534863%,51.36615647934377%)"/><rect x="24" y="16" width="4" height="4" fill="hsl(244,84.89308868534863%,51.36615647934377%)"/><rect x="0" y="20" width="4" height="4" fill="hsl(82,61.76049259491265%,70.5148039618507%)"/><rect x="4" y="20" width="4" height="4" fill="hsl(82,61.76049259491265%,70.5148039618507%)"/><rect x="8" y="20" width="4" height="4" fill="hsl(82,61.76049259491265%,70.5148039618507%)"/><rect x="12" y="20" width="4" height="4" fill="hsl(244,84.89308868534863%,51.36615647934377%)"/><rect x="16" y="20" width="4" height="4" fill="hsl(244,84.89308868534863%,51.36615647934377%)"/><rect x="20" y="20" width="4" height="4" fill="hsl(82,61.76049259491265%,70.5148039618507%)"/><rect x="24" y="20" width="4" height="4" fill="hsl(82,61.76049259491265%,70.5148039618507%)"/><rect x="28" y="20" width="4" height="4" fill="hsl(82,61.76049259491265%,70.5148039618507%)"/><rect x="0" y="24" width="4" height="4" fill="hsl(244,84.89308868534863%,51.36615647934377%)"/><rect x="12" y="24" width="4" height="4" fill="hsl(244,84.89308868534863%,51.36615647934377%)"/><rect x="16" y="24" width="4" height="4" fill="hsl(244,84.89308868534863%,51.36615647934377%)"/><rect x="28" y="24" width="4" height="4" fill="hsl(244,84.89308868534863%,51.36615647934377%)"/><rect x="8" y="28" width="4" height="4" fill="hsl(244,84.89308868534863%,51.36615647934377%)"/><rect x="12" y="28" width="4" height="4" fill="hsl(82,61.76049259491265%,70.5148039618507%)"/><rect x="16" y="28" width="4" height="4" fill="hsl(82,61.76049259491265%,70.5148039618507%)"/><rect x="20" y="28" width="4" height="4" fill="hsl(244,84.89308868534863%,51.36615647934377%)"/></svg>