<svg version="1.1" xmlns="http://www.w3.org/2000/svg" viewBox="0 0 32 32" style="shape-rendering: crispEdges"><rect x="0" y="0" width="32" height="32" fill="hsl(254,58.07756726630032%,56.89721870003268%)"/><rect x="0" y="0" width="4" height="4" fill="hsl(140,60.3951367828995%,70.81041377969086%)"/><rect x="8" y="0" width="4" height="4" fill="hsl(140,60.3951367828995%,70.81041377969086%)"/><rect x="20" y="0" width="4" height="4" fill="hsl(140,60.3951367828995%,70.81041377969086%)"/><rect x="28" y="0" width="4" height="4" fill="hsl(140,60.3951367828995%,70.81041377969086%)"/><rect x="0" y="4" width="4" height="4" fill="hsl(140,60.3951367828995%,70.81041377969086%)"/><rect x="8" y="4" width="4" height="4" fill="hsl(140,60.3951367828995%,70.81041377969086%)"/><rect x="12" y="4" width="4" height="4" fill="hsl(140,60.3951367828995%,70.81041377969086%)"/><rect x="16" y="4" width="4" height="4" fill="hsl(140,60.3951367828995%,70.81041377969086%)"/><rect x="20" y="4" width="4" height="4" fill="hsl(140,60.3951367828995%,70.81041377969086%)"/><rect x="28" y="4" width="4" height="4" fill="hsl(140,60.3951367828995%,70.81041377969086%)"/><rect x="0" y="8" width="4" height="4" fill="hsl(140,60.3951367828995%,70.81041377969086%)"/><rect x="4" y="8" width="4" height="4" fill="hsl(60,97.95297236181796%,64.39091175561771%)"/><rect x="8" y="8" width="4" height="4" fill="hsl(140,60.3951367828995%,70.81041377969086%)"/><rect x="12" y="8" width="4" height="4" fill="hsl(60,97.95297236181796%,64.39091175561771%)"/><rect x="16" y="8" width="4" height="4" fill="hsl(60,97.95297236181796%,64.39091175561771%)"/><rect x="20" y="8" width="4" height="4" fill="hsl(140,60.3951367828995%,70.81041377969086%)"/><rect x="24" y="8" width="4" height="4" fill="hsl(60,97.95297236181796%,64.39091175561771%)"/><rect x="28" y="8" width="4" height="4" fill="hsl(140,60.3951367828995%,70.81041377969086%)"/><rect x="8" y="12" width="4" height="4" fill="hsl(60,97.95297236181796%,64.39091175561771%)"/><rect x="12" y="12" width="4" height="4" fill="hsl(140,60.3951367828995%,70.81041377969086%)"/><rect x="16" y="12" width="4" height="4" fill="hsl(140,60.3951367828995%,70.81041377969086%)"/><rect x="20" y="12" width="4" height="4" fill="hsl(60,97.95297236181796%,64.39091175561771%)"/><rect x="0" y="16" width="4" height="4" fill="hsl(140,60.3951367828995%,70.81041377969086%)"/><rect x="4" y="16" width="4" height="4" fill="hsl(140,60.3951367828995%,70.81041377969086%)"/><rect x="24" y="16" width="4" height="4" fill="hsl(140,60.3951367828995%,70.81041377969086%)"/><rect x="28" y="16" width="4" height="4" fill="hsl(140,60.3951367828995%,70.81041377969086%)"/><rect x="0" y="20" width="4" height="4" fill="hsl(60,97.95297236181796%,64.39091175561771%)"/><rect x="8" y="20" width="4" height="4" fill="hsl(140,60.3951367828995%,70.81041377969086%)"/><rect x="12" y="20" width="4" height="4" fill="hsl(60,97.95297236181796%,64.39091175561771%)"/><rect x="16" y="20" width="4" height="4" fill="hsl(60,97.95297236181796%,64.39091175561771%)"/><rect x="20" y="20" width="4" height="4" fill="hsl(140,60.3951367828995%,70.81041377969086%)"/><rect x="28" y="20" width="4" height="4" fill="hsl(60,97.95297236181796%,64.39091175561771%)"/><rect x="4" y="24" width="4" height="4" fill="hsl(140,60.3951367828995%,70.81041377969086%)"/><rect x="8" y="24" width="4" height="4" fill="hsl(140,60.3951367828995%,70.81041377969086%)"/><rect x="12" y="24" width="4" height="4" fill="hsl(140,60.3951367828995%,70.81041377969086%)"/><rect x="16" y="24" width="4" height="4" fill="hsl(140,60.3951367828995%,70.81041377969086%)"/><rect x="20" y="24" width="4" height="4" fill="hsl(140,60.3951367828995%,70.81041377969086%)"/><rect x="24" y="24" width="4" height="4" fill="hsl(140,60.3951367828995%,70.81041377969086%)"/><rect x="0" y="28" width="4" height="4" fill="hsl(140,60.3951367828995%,70.81041377969086%)"/><rect x="4" y="28" width="4" height="4" fill="hsl(140,60.3951367828995%,70.81041377969086%)"/><rect x="8" y="28" width="4" height="4" fill="hsl(140,60.3951367828995%,70.81041377969086%)"/><rect x="20" y="28" width="4" height="4" fill="hsl(140,60.3951367828995%,70.81041377969086%)"/><rect x="24" y="28" width="4" height="4" fill="hsl(140,60.3951367828995%,70.81041377969086%)"/><rect x="28" y="28" width="4" height="4" fill="hsl(140,60.3951367828995%,70.81041377969086%)"/></svg>