<svg version="1.1" xmlns="http://www.w3.org/2000/svg" viewBox="0 0 32 32" style="shape-rendering: crispEdges"><rect x="0" y="0" width="32" height="32" fill="hsl(220,90.94429586082697%,39.04893236467615%)"/><rect x="0" y="0" width="4" height="4" fill="hsl(344,62.74727860465646%,68.60623337561265%)"/><rect x="8" y="0" width="4" height="4" fill="hsl(57,44.806740898638964%,72.45022730203345%)"/><rect x="12" y="0" width="4" height="4" fill="hsl(57,44.806740898638964%,72.45022730203345%)"/><rect x="16" y="0" width="4" height="4" fill="hsl(57,44.806740898638964%,72.45022730203345%)"/><rect x="20" y="0" width="4" height="4" fill="hsl(57,44.806740898638964%,72.45022730203345%)"/><rect x="28" y="0" width="4" height="4" fill="hsl(344,62.74727860465646%,68.60623337561265%)"/><rect x="0" y="4" width="4" height="4" fill="hsl(57,44.806740898638964%,72.45022730203345%)"/><rect x="28" y="4" width="4" height="4" fill="hsl(57,44.806740898638964%,72.45022730203345%)"/><rect x="4" y="8" width="4" height="4" fill="hsl(57,44.806740898638964%,72.45022730203345%)"/><rect x="12" y="8" width="4" height="4" fill="hsl(57,44.806740898638964%,72.45022730203345%)"/><rect x="16" y="8" width="4" height="4" fill="hsl(57,44.806740898638964%,72.45022730203345%)"/><rect x="24" y="8" width="4" height="4" fill="hsl(57,44.806740898638964%,72.45022730203345%)"/><rect x="0" y="12" width="4" height="4" fill="hsl(57,44.806740898638964%,72.45022730203345%)"/><rect x="4" y="12" width="4" height="4" fill="hsl(57,44.806740898638964%,72.45022730203345%)"/><rect x="12" y="12" width="4" height="4" fill="hsl(57,44.806740898638964%,72.45022730203345%)"/><rect x="16" y="12" width="4" height="4" fill="hsl(57,44.806740898638964%,72.45022730203345%)"/><rect x="24" y="12" width="4" height="4" fill="hsl(57,44.806740898638964%,72.45022730203345%)"/><rect x="28" y="12" width="4" height="4" fill="hsl(57,44.806740898638964%,72.45022730203345%)"/><rect x="0" y="16" width="4" height="4" fill="hsl(57,44.806740898638964%,72.45022730203345%)"/><rect x="4" y="16" width="4" height="4" fill="hsl(57,44.806740898638964%,72.45022730203345%)"/><rect x="8" y="16" width="4" height="4" fill="hsl(57,44.806740898638964%,72.45022730203345%)"/><rect x="12" y="16" width="4" height="4" fill="hsl(344,62.74727860465646%,68.60623337561265%)"/><rect x="16" y="16" width="4" height="4" fill="hsl(344,62.74727860465646%,68.60623337561265%)"/><rect x="20" y="16" width="4" height="4" fill="hsl(57,44.806740898638964%,72.45022730203345%)"/><rect x="24" y="16" width="4" height="4" fill="hsl(57,44.806740898638964%,72.45022730203345%)"/><rect x="28" y="16" width="4" height="4" fill="hsl(57,44.806740898638964%,72.45022730203345%)"/><rect x="0" y="20" width="4" height="4" fill="hsl(57,44.806740898638964%,72.45022730203345%)"/><rect x="8" y="20" width="4" height="4" fill="hsl(57,44.806740898638964%,72.45022730203345%)"/><rect x="20" y="20" width="4" height="4" fill="hsl(57,44.806740898638964%,72.45022730203345%)"/><rect x="28" y="20" width="4" height="4" fill="hsl(57,44.806740898638964%,72.45022730203345%)"/><rect x="0" y="24" width="4" height="4" fill="hsl(57,44.806740898638964%,72.45022730203345%)"/><rect x="4" y="24" width="4" height="4" fill="hsl(57,44.806740898638964%,72.45022730203345%)"/><rect x="8" y="24" width="4" height="4" fill="hsl(57,44.806740898638964%,72.45022730203345%)"/><rect x="20" y="24" width="4" height="4" fill="hsl(57,44.806740898638964%,72.45022730203345%)"/><rect x="24" y="24" width="4" height="4" fill="hsl(57,44.806740898638964%,72.45022730203345%)"/><rect x="28" y="24" width="4" height="4" fill="hsl(57,44.806740898638964%,72.45022730203345%)"/><rect x="8" y="28" width="4" height="4" fill="hsl(57,44.806740898638964%,72.45022730203345%)"/><rect x="12" y="28" width="4" height="4" fill="hsl(57,44.806740898638964%,72.45022730203345%)"/><rect x="16" y="28" width="4" height="4" fill="hsl(57,44.806740898638964%,72.45022730203345%)"/><rect x="20" y="28" width="4" height="4" fill="hsl(57,44.806740898638964%,72.45022730203345%)"/></svg>