<svg version="1.1" xmlns="http://www.w3.org/2000/svg" viewBox="0 0 32 32" style="shape-rendering: crispEdges"><rect x="0" y="0" width="32" height="32" fill="hsl(132,70.93746334314346%,25.777720287442207%)"/><rect x="0" y="0" width="4" height="4" fill="hsl(263,40.02845988608897%,44.09088372485712%)"/><rect x="4" y="0" width="4" height="4" fill="hsl(263,40.02845988608897%,44.09088372485712%)"/><rect x="8" y="0" width="4" height="4" fill="hsl(159,51.54090196825564%,45.73650039965287%)"/><rect x="20" y="0" width="4" height="4" fill="hsl(159,51.54090196825564%,45.73650039965287%)"/><rect x="24" y="0" width="4" height="4" fill="hsl(263,40.02845988608897%,44.09088372485712%)"/><rect x="28" y="0" width="4" height="4" fill="hsl(263,40.02845988608897%,44.09088372485712%)"/><rect x="0" y="4" width="4" height="4" fill="hsl(263,40.02845988608897%,44.09088372485712%)"/><rect x="4" y="4" width="4" height="4" fill="hsl(159,51.54090196825564%,45.73650039965287%)"/><rect x="8" y="4" width="4" height="4" fill="hsl(263,40.02845988608897%,44.09088372485712%)"/><rect x="12" y="4" width="4" height="4" fill="hsl(159,51.54090196825564%,45.73650039965287%)"/><rect x="16" y="4" width="4" height="4" fill="hsl(159,51.54090196825564%,45.73650039965287%)"/><rect x="20" y="4" width="4" height="4" fill="hsl(263,40.02845988608897%,44.09088372485712%)"/><rect x="24" y="4" width="4" height="4" fill="hsl(159,51.54090196825564%,45.73650039965287%)"/><rect x="28" y="4" width="4" height="4" fill="hsl(263,40.02845988608897%,44.09088372485712%)"/><rect x="12" y="8" width="4" height="4" fill="hsl(159,51.54090196825564%,45.73650039965287%)"/><rect x="16" y="8" width="4" height="4" fill="hsl(159,51.54090196825564%,45.73650039965287%)"/><rect x="0" y="12" width="4" height="4" fill="hsl(159,51.54090196825564%,45.73650039965287%)"/><rect x="4" y="12" width="4" height="4" fill="hsl(159,51.54090196825564%,45.73650039965287%)"/><rect x="8" y="12" width="4" height="4" fill="hsl(159,51.54090196825564%,45.73650039965287%)"/><rect x="20" y="12" width="4" height="4" fill="hsl(159,51.54090196825564%,45.73650039965287%)"/><rect x="24" y="12" width="4" height="4" fill="hsl(159,51.54090196825564%,45.73650039965287%)"/><rect x="28" y="12" width="4" height="4" fill="hsl(159,51.54090196825564%,45.73650039965287%)"/><rect x="0" y="16" width="4" height="4" fill="hsl(159,51.54090196825564%,45.73650039965287%)"/><rect x="8" y="16" width="4" height="4" fill="hsl(159,51.54090196825564%,45.73650039965287%)"/><rect x="20" y="16" width="4" height="4" fill="hsl(159,51.54090196825564%,45.73650039965287%)"/><rect x="28" y="16" width="4" height="4" fill="hsl(159,51.54090196825564%,45.73650039965287%)"/><rect x="8" y="20" width="4" height="4" fill="hsl(159,51.54090196825564%,45.73650039965287%)"/><rect x="20" y="20" width="4" height="4" fill="hsl(159,51.54090196825564%,45.73650039965287%)"/><rect x="0" y="24" width="4" height="4" fill="hsl(159,51.54090196825564%,45.73650039965287%)"/><rect x="4" y="24" width="4" height="4" fill="hsl(159,51.54090196825564%,45.73650039965287%)"/><rect x="24" y="24" width="4" height="4" fill="hsl(159,51.54090196825564%,45.73650039965287%)"/><rect x="28" y="24" width="4" height="4" fill="hsl(159,51.54090196825564%,45.73650039965287%)"/><rect x="12" y="28" width="4" height="4" fill="hsl(159,51.54090196825564%,45.73650039965287%)"/><rect x="16" y="28" width="4" height="4" fill="hsl(159,51.54090196825564%,45.73650039965287%)"/></svg>