<svg version="1.1" xmlns="http://www.w3.org/2000/svg" viewBox="0 0 32 32" style="shape-rendering: crispEdges"><rect x="0" y="0" width="32" height="32" fill="hsl(350,61.99420408345759%,34.8107744473964%)"/><rect x="0" y="0" width="4" height="4" fill="hsl(65,99.2908251658082%,41.05331253958866%)"/><rect x="4" y="0" width="4" height="4" fill="hsl(65,99.2908251658082%,41.05331253958866%)"/><rect x="8" y="0" width="4" height="4" fill="hsl(65,99.2908251658082%,41.05331253958866%)"/><rect x="12" y="0" width="4" height="4" fill="hsl(11,41.12600481137633%,57.04468652838841%)"/><rect x="16" y="0" width="4" height="4" fill="hsl(11,41.12600481137633%,57.04468652838841%)"/><rect x="20" y="0" width="4" height="4" fill="hsl(65,99.2908251658082%,41.05331253958866%)"/><rect x="24" y="0" width="4" height="4" fill="hsl(65,99.2908251658082%,41.05331253958866%)"/><rect x="28" y="0" width="4" height="4" fill="hsl(65,99.2908251658082%,41.05331253958866%)"/><rect x="4" y="4" width="4" height="4" fill="hsl(65,99.2908251658082%,41.05331253958866%)"/><rect x="8" y="4" width="4" height="4" fill="hsl(65,99.2908251658082%,41.05331253958866%)"/><rect x="20" y="4" width="4" height="4" fill="hsl(65,99.2908251658082%,41.05331253958866%)"/><rect x="24" y="4" width="4" height="4" fill="hsl(65,99.2908251658082%,41.05331253958866%)"/><rect x="0" y="8" width="4" height="4" fill="hsl(65,99.2908251658082%,41.05331253958866%)"/><rect x="4" y="8" width="4" height="4" fill="hsl(11,41.12600481137633%,57.04468652838841%)"/><rect x="12" y="8" width="4" height="4" fill="hsl(65,99.2908251658082%,41.05331253958866%)"/><rect x="16" y="8" width="4" height="4" fill="hsl(65,99.2908251658082%,41.05331253958866%)"/><rect x="24" y="8" width="4" height="4" fill="hsl(11,41.12600481137633%,57.04468652838841%)"/><rect x="28" y="8" width="4" height="4" fill="hsl(65,99.2908251658082%,41.05331253958866%)"/><rect x="8" y="12" width="4" height="4" fill="hsl(11,41.12600481137633%,57.04468652838841%)"/><rect x="12" y="12" width="4" height="4" fill="hsl(65,99.2908251658082%,41.05331253958866%)"/><rect x="16" y="12" width="4" height="4" fill="hsl(65,99.2908251658082%,41.05331253958866%)"/><rect x="20" y="12" width="4" height="4" fill="hsl(11,41.12600481137633%,57.04468652838841%)"/><rect x="0" y="16" width="4" height="4" fill="hsl(65,99.2908251658082%,41.05331253958866%)"/><rect x="8" y="16" width="4" height="4" fill="hsl(65,99.2908251658082%,41.05331253958866%)"/><rect x="12" y="16" width="4" height="4" fill="hsl(65,99.2908251658082%,41.05331253958866%)"/><rect x="16" y="16" width="4" height="4" fill="hsl(65,99.2908251658082%,41.05331253958866%)"/><rect x="20" y="16" width="4" height="4" fill="hsl(65,99.2908251658082%,41.05331253958866%)"/><rect x="28" y="16" width="4" height="4" fill="hsl(65,99.2908251658082%,41.05331253958866%)"/><rect x="0" y="20" width="4" height="4" fill="hsl(65,99.2908251658082%,41.05331253958866%)"/><rect x="4" y="20" width="4" height="4" fill="hsl(65,99.2908251658082%,41.05331253958866%)"/><rect x="12" y="20" width="4" height="4" fill="hsl(65,99.2908251658082%,41.05331253958866%)"/><rect x="16" y="20" width="4" height="4" fill="hsl(65,99.2908251658082%,41.05331253958866%)"/><rect x="24" y="20" width="4" height="4" fill="hsl(65,99.2908251658082%,41.05331253958866%)"/><rect x="28" y="20" width="4" height="4" fill="hsl(65,99.2908251658082%,41.05331253958866%)"/><rect x="4" y="24" width="4" height="4" fill="hsl(65,99.2908251658082%,41.05331253958866%)"/><rect x="8" y="24" width="4" height="4" fill="hsl(65,99.2908251658082%,41.05331253958866%)"/><rect x="12" y="24" width="4" height="4" fill="hsl(65,99.2908251658082%,41.05331253958866%)"/><rect x="16" y="24" width="4" height="4" fill="hsl(65,99.2908251658082%,41.05331253958866%)"/><rect x="20" y="24" width="4" height="4" fill="hsl(65,99.2908251658082%,41.05331253958866%)"/><rect x="24" y="24" width="4" height="4" fill="hsl(65,99.2908251658082%,41.05331253958866%)"/><rect x="0" y="28" width="4" height="4" fill="hsl(11,41.12600481137633%,57.04468652838841%)"/><rect x="4" y="28" width="4" height="4" fill="hsl(65,99.2908251658082%,41.05331253958866%)"/><rect x="8" y="28" width="4" height="4" fill="hsl(65,99.2908251658082%,41.05331253958866%)"/><rect x="12" y="28" width="4" height="4" fill="hsl(65,99.2908251658082%,41.05331253958866%)"/><rect x="16" y="28" width="4" height="4" fill="hsl(65,99.2908251658082%,41.05331253958866%)"/><rect x="20" y="28" width="4" height="4" fill="hsl(65,99.2908251658082%,41.05331253958866%)"/><rect x="24" y="28" width="4" height="4" fill="hsl(65,99.2908251658082%,41.05331253958866%)"/><rect x="28" y="28" width="4" height="4" fill="hsl(11,41.12600481137633%,57.04468652838841%)"/></svg>