<svg version="1.1" xmlns="http://www.w3.org/2000/svg" viewBox="0 0 32 32" style="shape-rendering: crispEdges"><rect x="0" y="0" width="32" height="32" fill="hsl(359,75.92783698812127%,58.312178519554436%)"/><rect x="0" y="0" width="4" height="4" fill="hsl(82,71.4674445707351%,42.24837014917284%)"/><rect x="28" y="0" width="4" height="4" fill="hsl(82,71.4674445707351%,42.24837014917284%)"/><rect x="8" y="4" width="4" height="4" fill="hsl(82,71.4674445707351%,42.24837014917284%)"/><rect x="12" y="4" width="4" height="4" fill="hsl(82,71.4674445707351%,42.24837014917284%)"/><rect x="16" y="4" width="4" height="4" fill="hsl(82,71.4674445707351%,42.24837014917284%)"/><rect x="20" y="4" width="4" height="4" fill="hsl(82,71.4674445707351%,42.24837014917284%)"/><rect x="4" y="8" width="4" height="4" fill="hsl(82,71.4674445707351%,42.24837014917284%)"/><rect x="12" y="8" width="4" height="4" fill="hsl(299,64.71939778886735%,36.05929140467197%)"/><rect x="16" y="8" width="4" height="4" fill="hsl(299,64.71939778886735%,36.05929140467197%)"/><rect x="24" y="8" width="4" height="4" fill="hsl(82,71.4674445707351%,42.24837014917284%)"/><rect x="8" y="12" width="4" height="4" fill="hsl(82,71.4674445707351%,42.24837014917284%)"/><rect x="12" y="12" width="4" height="4" fill="hsl(299,64.71939778886735%,36.05929140467197%)"/><rect x="16" y="12" width="4" height="4" fill="hsl(299,64.71939778886735%,36.05929140467197%)"/><rect x="20" y="12" width="4" height="4" fill="hsl(82,71.4674445707351%,42.24837014917284%)"/><rect x="12" y="16" width="4" height="4" fill="hsl(299,64.71939778886735%,36.05929140467197%)"/><rect x="16" y="16" width="4" height="4" fill="hsl(299,64.71939778886735%,36.05929140467197%)"/><rect x="8" y="20" width="4" height="4" fill="hsl(82,71.4674445707351%,42.24837014917284%)"/><rect x="12" y="20" width="4" height="4" fill="hsl(82,71.4674445707351%,42.24837014917284%)"/><rect x="16" y="20" width="4" height="4" fill="hsl(82,71.4674445707351%,42.24837014917284%)"/><rect x="20" y="20" width="4" height="4" fill="hsl(82,71.4674445707351%,42.24837014917284%)"/><rect x="0" y="24" width="4" height="4" fill="hsl(82,71.4674445707351%,42.24837014917284%)"/><rect x="12" y="24" width="4" height="4" fill="hsl(82,71.4674445707351%,42.24837014917284%)"/><rect x="16" y="24" width="4" height="4" fill="hsl(82,71.4674445707351%,42.24837014917284%)"/><rect x="28" y="24" width="4" height="4" fill="hsl(82,71.4674445707351%,42.24837014917284%)"/><rect x="4" y="28" width="4" height="4" fill="hsl(82,71.4674445707351%,42.24837014917284%)"/><rect x="8" y="28" width="4" height="4" fill="hsl(82,71.4674445707351%,42.24837014917284%)"/><rect x="20" y="28" width="4" height="4" fill="hsl(82,71.4674445707351%,42.24837014917284%)"/><rect x="24" y="28" width="4" height="4" fill="hsl(82,71.4674445707351%,42.24837014917284%)"/></svg>