<svg version="1.1" xmlns="http://www.w3.org/2000/svg" viewBox="0 0 32 32" style="shape-rendering: crispEdges"><rect x="0" y="0" width="32" height="32" fill="hsl(121,86.50976303964853%,28.32081738160923%)"/><rect x="0" y="0" width="4" height="4" fill="hsl(101,43.01732812076807%,45.312310638837516%)"/><rect x="4" y="0" width="4" height="4" fill="hsl(101,43.01732812076807%,45.312310638837516%)"/><rect x="12" y="0" width="4" height="4" fill="hsl(101,43.01732812076807%,45.312310638837516%)"/><rect x="16" y="0" width="4" height="4" fill="hsl(101,43.01732812076807%,45.312310638837516%)"/><rect x="24" y="0" width="4" height="4" fill="hsl(101,43.01732812076807%,45.312310638837516%)"/><rect x="28" y="0" width="4" height="4" fill="hsl(101,43.01732812076807%,45.312310638837516%)"/><rect x="8" y="4" width="4" height="4" fill="hsl(221,41.12679019570351%,42.04997126944363%)"/><rect x="12" y="4" width="4" height="4" fill="hsl(101,43.01732812076807%,45.312310638837516%)"/><rect x="16" y="4" width="4" height="4" fill="hsl(101,43.01732812076807%,45.312310638837516%)"/><rect x="20" y="4" width="4" height="4" fill="hsl(221,41.12679019570351%,42.04997126944363%)"/><rect x="0" y="8" width="4" height="4" fill="hsl(101,43.01732812076807%,45.312310638837516%)"/><rect x="4" y="8" width="4" height="4" fill="hsl(101,43.01732812076807%,45.312310638837516%)"/><rect x="8" y="8" width="4" height="4" fill="hsl(101,43.01732812076807%,45.312310638837516%)"/><rect x="20" y="8" width="4" height="4" fill="hsl(101,43.01732812076807%,45.312310638837516%)"/><rect x="24" y="8" width="4" height="4" fill="hsl(101,43.01732812076807%,45.312310638837516%)"/><rect x="28" y="8" width="4" height="4" fill="hsl(101,43.01732812076807%,45.312310638837516%)"/><rect x="0" y="12" width="4" height="4" fill="hsl(101,43.01732812076807%,45.312310638837516%)"/><rect x="12" y="12" width="4" height="4" fill="hsl(101,43.01732812076807%,45.312310638837516%)"/><rect x="16" y="12" width="4" height="4" fill="hsl(101,43.01732812076807%,45.312310638837516%)"/><rect x="28" y="12" width="4" height="4" fill="hsl(101,43.01732812076807%,45.312310638837516%)"/><rect x="0" y="16" width="4" height="4" fill="hsl(221,41.12679019570351%,42.04997126944363%)"/><rect x="4" y="16" width="4" height="4" fill="hsl(101,43.01732812076807%,45.312310638837516%)"/><rect x="12" y="16" width="4" height="4" fill="hsl(101,43.01732812076807%,45.312310638837516%)"/><rect x="16" y="16" width="4" height="4" fill="hsl(101,43.01732812076807%,45.312310638837516%)"/><rect x="24" y="16" width="4" height="4" fill="hsl(101,43.01732812076807%,45.312310638837516%)"/><rect x="28" y="16" width="4" height="4" fill="hsl(221,41.12679019570351%,42.04997126944363%)"/><rect x="0" y="20" width="4" height="4" fill="hsl(101,43.01732812076807%,45.312310638837516%)"/><rect x="4" y="20" width="4" height="4" fill="hsl(101,43.01732812076807%,45.312310638837516%)"/><rect x="8" y="20" width="4" height="4" fill="hsl(101,43.01732812076807%,45.312310638837516%)"/><rect x="20" y="20" width="4" height="4" fill="hsl(101,43.01732812076807%,45.312310638837516%)"/><rect x="24" y="20" width="4" height="4" fill="hsl(101,43.01732812076807%,45.312310638837516%)"/><rect x="28" y="20" width="4" height="4" fill="hsl(101,43.01732812076807%,45.312310638837516%)"/><rect x="12" y="24" width="4" height="4" fill="hsl(221,41.12679019570351%,42.04997126944363%)"/><rect x="16" y="24" width="4" height="4" fill="hsl(221,41.12679019570351%,42.04997126944363%)"/><rect x="0" y="28" width="4" height="4" fill="hsl(101,43.01732812076807%,45.312310638837516%)"/><rect x="4" y="28" width="4" height="4" fill="hsl(101,43.01732812076807%,45.312310638837516%)"/><rect x="8" y="28" width="4" height="4" fill="hsl(101,43.01732812076807%,45.312310638837516%)"/><rect x="12" y="28" width="4" height="4" fill="hsl(221,41.12679019570351%,42.04997126944363%)"/><rect x="16" y="28" width="4" height="4" fill="hsl(221,41.12679019570351%,42.04997126944363%)"/><rect x="20" y="28" width="4" height="4" fill="hsl(101,43.01732812076807%,45.312310638837516%)"/><rect x="24" y="28" width="4" height="4" fill="hsl(101,43.01732812076807%,45.312310638837516%)"/><rect x="28" y="28" width="4" height="4" fill="hsl(101,43.01732812076807%,45.312310638837516%)"/></svg>