<svg width="64" height="64" viewBox="0 0 64 64" fill="none" xmlns="http://www.w3.org/2000/svg">
    <rect width="64" height="64" rx="12" fill="black"/>
    <rect width="64" height="64" rx="12" fill="url(#paint0_linear_15331_33849)"/>
    <path d="M17.2162 21.6889C17.2644 21.5874 17.3248 21.4859 17.3489 21.3732C17.5662 20.4938 17.9886 19.6933 18.3506 18.859C18.411 18.735 18.4834 18.6335 18.5558 18.5208C18.8696 18.0472 19.1231 17.5173 19.5093 17.1002C20.0041 16.559 20.4627 15.984 20.9817 15.4654C22.5265 13.9321 24.3489 12.7595 26.461 12.0041C27.5231 11.6208 28.6213 11.3502 29.7558 11.1698C30.7334 11.0007 31.711 11.012 32.6886 11.0007C34.1731 10.9782 35.5851 11.3615 36.9851 11.7448C38.6868 12.1958 40.1955 13.0188 41.5955 13.9997C42.5731 14.6874 43.4299 15.5105 44.1903 16.4124C44.842 17.1791 45.3972 18.0021 45.8799 18.8703C46.3265 19.682 46.6403 20.5502 46.93 21.4296C47.4368 22.9854 47.4851 24.5639 47.4851 26.1648C47.4731 32.1177 47.4851 38.0707 47.4851 44.0236C47.4851 44.2152 47.461 44.3956 47.5334 44.5873C47.461 44.7902 47.4972 44.9932 47.4972 45.2074C47.4972 47.0789 47.4972 48.9618 47.4972 50.8333C47.4972 51.0024 47.4972 51.1716 47.4972 51.3407C47.461 52.2765 47.0024 52.7725 46.0006 52.9529C45.9403 52.9642 45.9282 52.9755 45.8679 52.9867C45.7351 53.0093 45.5782 52.998 45.4696 52.9867C44.4317 52.75 44.0334 51.9157 44.0455 51.149C44.0696 49.6833 44.0455 48.2177 44.0334 46.752C44.0334 46.1883 43.792 45.7485 43.2731 45.4329C42.2351 44.8015 40.7989 45.399 40.6662 46.5603C40.6058 47.0677 40.642 47.575 40.63 48.0824C40.63 48.398 40.63 48.725 40.6179 49.0407C40.5817 49.7961 40.0265 50.3936 39.23 50.5176C38.3972 50.6417 37.7575 50.2809 37.3472 49.5819C37.2506 49.4127 37.2627 49.2211 37.2627 49.0294C37.2627 48.3868 37.2627 47.7554 37.2506 47.1128C37.2506 46.7745 37.2144 46.4363 37.0817 46.1206C36.7679 45.4329 36.0317 45.0946 35.1386 45.2299C34.3903 45.3427 33.8834 45.8951 33.8472 46.6392C33.8351 46.8309 33.8231 47.0113 33.8351 47.203C33.9075 47.9245 33.4851 48.398 32.9058 48.7363C32.0851 49.2098 30.6248 48.7363 30.4679 47.7554C30.3955 47.3044 30.4317 46.8647 30.311 46.4137C30.1058 45.6133 29.5748 45.2074 28.6817 45.2186C27.7886 45.2299 27.1731 45.6809 27.0282 46.4701C26.9317 46.9775 26.992 47.4848 26.98 47.9922C26.9679 48.4657 27.0041 48.9279 26.8955 49.3902C26.6541 50.4049 25.1937 50.9122 24.3006 50.2922C23.7937 49.9426 23.5403 49.4804 23.5403 48.8941C23.5403 48.1387 23.5282 47.3946 23.5162 46.6392C23.5041 46.0868 23.2144 45.6809 22.7075 45.399C21.6334 44.7902 20.1851 45.5118 20.161 46.6731C20.1489 48.2177 20.1248 49.7735 20.1248 51.3294C20.1248 51.8593 19.9196 52.2539 19.4972 52.6034C18.9662 53.0657 17.7593 53.0206 17.2644 52.5921C16.9868 52.3441 16.7817 52.0961 16.7696 51.724C16.7575 51.4985 16.7455 51.273 16.7455 51.0475C16.7455 42.5241 16.7455 33.9893 16.7334 25.4658C16.7334 24.2256 16.8541 22.9967 17.2041 21.8016C17.2282 21.7678 17.2162 21.7227 17.2162 21.6889ZM35.042 24.3835C35.03 25.0487 35.2593 25.6575 35.6093 26.2099C36.1162 26.9991 36.9489 27.3937 37.8903 27.3599C39.23 27.3036 40.0748 26.5143 40.4489 25.3756C40.7748 24.3722 40.5575 23.4477 40.0144 22.5683C39.3748 21.5536 37.8058 21.1477 36.6955 21.6889C35.5127 22.2639 35.1386 23.2448 35.042 24.3835ZM29.2731 24.3835C29.1403 23.8761 29.1282 23.2899 28.7903 22.805C28.6334 22.5908 28.5368 22.3428 28.3196 22.1624C27.0644 21.1139 25.4713 21.1477 24.361 22.4217C23.6248 23.2673 23.5524 24.2707 23.8179 25.308C23.9748 25.9168 24.3489 26.3903 24.8437 26.7962C25.6162 27.405 26.7748 27.5403 27.7041 27.0217C28.7541 26.4241 29.1162 25.4884 29.2731 24.3835ZM32.3144 31.5089C32.8093 31.4976 33.3162 31.3736 33.7868 31.1369C34.3058 30.8663 34.6437 30.4717 34.7765 29.9305C34.8731 29.5246 34.6437 29.2315 34.1851 29.1977C33.9437 29.1864 33.7024 29.1977 33.461 29.2315C32.6403 29.3442 31.8196 29.3555 30.9989 29.2202C30.7213 29.1751 30.4437 29.1751 30.1662 29.2315C29.8886 29.2879 29.7558 29.4344 29.7437 29.6937C29.7196 30.156 29.9248 30.5393 30.2989 30.8325C30.8662 31.2722 31.53 31.5202 32.3144 31.5089Z" fill="white"/>
    <defs>
        <linearGradient id="paint0_linear_15331_33849" x1="0.0251505" y1="63.98" x2="32.6689" y2="-2.74231" gradientUnits="userSpaceOnUse">
            <stop stop-color="#5DB3C2"/>
            <stop offset="1" stop-color="#9F619E"/>
        </linearGradient>
    </defs>
</svg>
