<svg id="arrow-right-3" viewBox="0 0 16 16" fill="none" xmlns="http://www.w3.org/2000/svg">
    <path fill-rule="evenodd" clip-rule="evenodd" d="M13.8639 7.46921L9.86431 3.46967C9.57142 3.17678 9.09655 3.17678 8.80365 3.46967C8.51076 3.76256 8.51076 4.23744 8.80365 4.53033L11.5233 7.25L2.66732 7.25C2.2531 7.25 1.91732 7.58579 1.91732 8C1.91732 8.41421 2.2531 8.75 2.66732 8.75L11.5233 8.75L8.80365 11.4697C8.51076 11.7626 8.51076 12.2374 8.80365 12.5303C9.09655 12.8232 9.57142 12.8232 9.86431 12.5303L13.8638 8.53082C13.864 8.53066 13.8642 8.53049 13.8643 8.53033C14.1572 8.23744 14.1572 7.76256 13.8643 7.46967C13.8642 7.46952 13.864 7.46936 13.8639 7.46921Z" fill="currentColor"/>
</svg>
