<svg width="64" height="64" viewBox="0 0 64 64" fill="none" xmlns="http://www.w3.org/2000/svg">
<g clip-path="url(#clip0_17595_23138)">
<rect width="64" height="64" fill="url(#paint0_linear_17595_23138)"/>
<path fill-rule="evenodd" clip-rule="evenodd" d="M17.3946 18.3368C14.0485 21.9121 12 26.7168 12 32.0001C12 37.0318 13.8582 41.6298 16.9259 45.1447L18.219 43.8516C15.5083 40.6761 13.8717 36.556 13.8717 32.0536C13.8717 27.2724 15.7171 22.9223 18.7345 19.6767L17.3946 18.3368ZM44.4302 45.3725C41.1847 48.39 36.8346 50.2353 32.0536 50.2353C27.3332 50.2353 23.0329 48.4364 19.8009 45.4868L18.5163 46.7715C22.0722 50.0191 26.8047 52 32 52C37.2832 52 42.0878 49.9515 45.6631 46.6054L44.4302 45.3725ZM47.234 44.959L45.9974 43.7224C48.6426 40.5646 50.2353 36.4951 50.2353 32.0536C50.2353 27.3331 48.4364 23.0329 45.4868 19.8009L46.7715 18.5164C50.0191 22.0722 52 26.8048 52 32.0001C52 36.9437 50.2061 41.4686 47.234 44.959ZM20.3847 18.1096L19.0409 16.7659C22.5314 13.7937 27.0562 12 32 12C37.0319 12 41.6296 13.8582 45.1447 16.9259L43.8516 18.2189C40.6762 15.5082 36.556 13.8717 32.0536 13.8717C27.612 13.8717 23.5424 15.4643 20.3847 18.1096Z" fill="white"/>
<path d="M31.9005 19.2041V28.5577L24.1329 32.0856L31.9005 19.2041Z" fill="#868686"/>
<path d="M31.9005 28.5571V36.6809L24.1329 32.0849L31.9005 28.5571Z" fill="#363636"/>
<path d="M31.9005 38.296V44.6071L24.1329 33.7002L31.9005 38.296Z" fill="#868686"/>
<path d="M31.9005 19.2041V28.5577L39.6681 32.0854L31.9005 19.2041Z" fill="#312706"/>
<path d="M31.9005 28.5571V36.6809L39.6681 32.0849L31.9005 28.5571Z" fill="#130F03"/>
<path d="M31.9005 38.296V44.6071L39.6681 33.7002L31.9005 38.296Z" fill="#312807"/>
</g>
<defs>
<linearGradient id="paint0_linear_17595_23138" x1="32" y1="-2.4414e-06" x2="32" y2="64" gradientUnits="userSpaceOnUse">
<stop stop-color="#F0B90B"/>
<stop offset="1" stop-color="#F8D33A"/>
</linearGradient>
<clipPath id="clip0_17595_23138">
<rect width="64" height="64" rx="12" fill="white"/>
</clipPath>
</defs>
</svg>
