<svg width="24" height="24" viewBox="0 0 24 24" fill="none" xmlns="http://www.w3.org/2000/svg">
<rect width="24" height="24" rx="12" fill="#F0B90B"/>
<path d="M7.90675 6.9252L12 4.5L16.0932 6.9252L14.5883 7.82113L12 6.29186L9.4115 7.82113L7.90675 6.9252ZM16.0932 9.98374L14.5883 9.0878L12 10.6171L9.4115 9.0878L7.90675 9.98374V11.7756L10.4951 13.3048V16.3634L12 17.2594L13.5049 16.3634V13.3048L16.0932 11.7756V9.98374ZM16.0932 14.8341V13.0422L14.5883 13.9382V15.7301L16.0932 14.8341ZM17.1617 15.4675L14.5733 16.9966V18.7885L18.6666 16.3634V11.5131L17.1617 12.4088V15.4675ZM15.6568 8.45442L17.1617 9.35037V11.1423L18.6666 10.2463V8.45442L17.1617 7.55853L15.6568 8.45442ZM10.4951 17.6455V19.4374L12 20.3333L13.5049 19.4374V17.6455L12 18.5414L10.4951 17.6455ZM7.90675 14.8341L9.4115 15.7301V13.9382L7.90675 13.0422V14.8341ZM10.4951 8.45442L12 9.35037L13.5049 8.45442L12 7.55853L10.4951 8.45442ZM6.83816 9.35037L8.34306 8.45442L6.83816 7.55853L5.33325 8.45442V10.2463L6.83816 11.1423V9.35037ZM6.83816 12.4088L5.33325 11.5131V16.3634L9.42665 18.7885V16.9966L6.83816 15.4675V12.4088Z" fill="white"/>
</svg>
