<svg width="64" height="64" viewBox="0 0 64 64" fill="none" xmlns="http://www.w3.org/2000/svg">
<g clip-path="url(#clip0_18981_10272)">
<rect width="64" height="64" fill="#111111"/>
<rect width="64" height="64" fill="#F4F6FF"/>
<path fill-rule="evenodd" clip-rule="evenodd" d="M32 5C46.9117 5 59 17.0883 59 32C59 46.9117 46.9117 59 32 59C17.0883 59 5 46.9117 5 32C5 17.0883 17.0883 5 32 5ZM32 8C45.2548 8 56 18.7452 56 32C56 45.2548 45.2548 56 32 56C18.7452 56 8 45.2548 8 32C8 18.7452 18.7452 8 32 8Z" fill="#0052FF"/>
<path d="M32.008 14.2812L31.7702 15.0888V38.5207L32.008 38.7579L42.8846 32.3286L32.008 14.2812Z" fill="#6697FF"/>
<path d="M32.008 14.2812L21.1312 32.3286L32.008 38.7579V27.3847V14.2812Z" fill="#0052FF"/>
<path d="M32.008 40.8173L31.874 40.9807V49.3274L32.008 49.7186L42.8913 34.3914L32.008 40.8173Z" fill="#6697FF"/>
<path d="M32.008 49.7186V40.8173L21.1311 34.3914L32.008 49.7186Z" fill="#0052FF"/>
<path d="M32.008 38.7579L42.8846 32.3287L32.008 27.3848V38.7579Z" fill="#CCDCFF"/>
<path d="M21.1311 32.3287L32.008 38.7579V27.3848L21.1311 32.3287Z" fill="#6697FF"/>
</g>
<defs>
<clipPath id="clip0_18981_10272">
<rect width="64" height="64" rx="12" fill="white"/>
</clipPath>
</defs>
</svg>
