<svg width="64" height="64" viewBox="0 0 64 64" fill="none" xmlns="http://www.w3.org/2000/svg">
<g style="mix-blend-mode:multiply">
<rect width="64" height="64" rx="12" fill="black"/>
<rect width="64" height="64" rx="12" fill="url(#paint0_linear_15329_41357)"/>
</g>
<path fill-rule="evenodd" clip-rule="evenodd" d="M42.9034 27.0447L32.0143 10L21.1252 27.0447L32.0136 33.3909L42.9034 27.0447ZM32.0143 14.4117L24.4586 26.2388L32.0136 30.6421L39.5698 26.2388L32.0143 14.4117ZM19.3668 29.7753L31.9986 37.1379L44.6333 29.7753L44.9784 30.3154C48.8688 36.4053 48 44.3806 42.8895 49.4904C36.8754 55.5033 27.125 55.5033 21.1109 49.4904C16.0002 44.381 15.1313 36.4053 19.0219 30.3154L19.3668 29.7753Z" fill="#2B3850"/>
<g clip-path="url(#clip0_15329_41357)">
<rect width="64" height="64" fill="#FFD3D3"/>
<path fill-rule="evenodd" clip-rule="evenodd" d="M42.9034 27.0447L32.0143 10L21.1252 27.0447L32.0136 33.3909L42.9034 27.0447ZM32.0143 14.4117L24.4586 26.2388L32.0136 30.6421L39.5698 26.2388L32.0143 14.4117ZM19.3668 29.7753L31.9986 37.1379L44.6333 29.7753L44.9784 30.3154C48.8688 36.4053 48 44.3806 42.8895 49.4904C36.8754 55.5033 27.125 55.5033 21.1109 49.4904C16.0002 44.381 15.1313 36.4053 19.0219 30.3154L19.3668 29.7753Z" fill="#2B3850"/>
<path d="M32.0131 55.8494C41.408 55.8494 49.024 48.2781 49.024 38.9383C49.024 35.3542 47.9025 32.0305 45.9892 29.2952L31.8991 37.7276L17.8091 29.6292C16.0349 32.2992 15.0021 35.4988 15.0021 38.9383C15.0021 48.2781 22.6182 55.8494 32.0131 55.8494Z" fill="url(#paint1_radial_15329_41357)"/>
<path d="M32.0131 55.8494C41.408 55.8494 49.024 48.2781 49.024 38.9383C49.024 35.3542 47.9025 32.0305 45.9892 29.2952L31.8991 37.7276L17.8091 29.6292C16.0349 32.2992 15.0021 35.4988 15.0021 38.9383C15.0021 48.2781 22.6182 55.8494 32.0131 55.8494Z" fill="url(#paint2_radial_15329_41357)" fill-opacity="0.5"/>
<path d="M32.0131 55.8494C41.408 55.8494 49.024 48.2781 49.024 38.9383C49.024 35.3542 47.9025 32.0305 45.9892 29.2952L31.8991 37.7276L17.8091 29.6292C16.0349 32.2992 15.0021 35.4988 15.0021 38.9383C15.0021 48.2781 22.6182 55.8494 32.0131 55.8494Z" fill="url(#paint3_radial_15329_41357)"/>
<path d="M32.0131 55.8494C41.408 55.8494 49.024 48.2781 49.024 38.9383C49.024 35.3542 47.9025 32.0305 45.9892 29.2952L31.8991 37.7276L17.8091 29.6292C16.0349 32.2992 15.0021 35.4988 15.0021 38.9383C15.0021 48.2781 22.6182 55.8494 32.0131 55.8494Z" fill="url(#paint4_radial_15329_41357)"/>
<path d="M20.0335 26.5904L32.0131 33.4383V8.27002L20.0335 26.5904Z" fill="url(#paint5_radial_15329_41357)"/>
<path d="M20.0335 26.5904L32.0131 33.4383V8.27002L20.0335 26.5904Z" fill="url(#paint6_radial_15329_41357)"/>
<path d="M43.9726 26.5904L32.0131 33.4383V8.27002L43.9726 26.5904Z" fill="url(#paint7_radial_15329_41357)"/>
<path d="M43.9726 26.5904L32.0131 33.4383V8.27002L43.9726 26.5904Z" fill="url(#paint8_radial_15329_41357)"/>
<path d="M43.9726 26.5904L32.0131 33.4383V8.27002L43.9726 26.5904Z" fill="url(#paint9_linear_15329_41357)" fill-opacity="0.6"/>
<path d="M45.9893 29.2917L32.0131 37.7076V55.77L45.9893 29.2917Z" fill="url(#paint10_radial_15329_41357)"/>
<path d="M45.9893 29.2917L32.0131 37.7076V55.77L45.9893 29.2917Z" fill="url(#paint11_radial_15329_41357)"/>
<path d="M45.9893 29.2917L32.0131 37.7076V55.77L45.9893 29.2917Z" fill="url(#paint12_radial_15329_41357)"/>
<path d="M17.7974 29.6094L32.0131 37.7077V55.77L17.7974 29.6094Z" fill="url(#paint13_radial_15329_41357)"/>
<path d="M17.7974 29.6094L32.0131 37.7077V55.77L17.7974 29.6094Z" fill="url(#paint14_radial_15329_41357)"/>
<path d="M17.7974 29.6094L32.0131 37.7077V55.77L17.7974 29.6094Z" fill="url(#paint15_radial_15329_41357)"/>
</g>
<defs>
<linearGradient id="paint0_linear_15329_41357" x1="0.0251505" y1="63.9799" x2="32.6689" y2="-2.74231" gradientUnits="userSpaceOnUse">
<stop stop-color="#F9CC91"/>
<stop offset="1" stop-color="#F89990"/>
</linearGradient>
<radialGradient id="paint1_radial_15329_41357" cx="0" cy="0" r="1" gradientUnits="userSpaceOnUse" gradientTransform="translate(44.6426 50.855) rotate(-145.131) scale(30.9486 41.3911)">
<stop stop-color="#8AFBED" stop-opacity="0"/>
<stop offset="0.671495" stop-color="#00A3FF" stop-opacity="0.45726"/>
<stop offset="1" stop-color="#198CF6"/>
</radialGradient>
<radialGradient id="paint2_radial_15329_41357" cx="0" cy="0" r="1" gradientUnits="userSpaceOnUse" gradientTransform="translate(27.8164 27.2528) rotate(52.8106) scale(29.7955 24.2403)">
<stop stop-color="#35C2FF"/>
<stop offset="1" stop-color="#00A3FF" stop-opacity="0"/>
</radialGradient>
<radialGradient id="paint3_radial_15329_41357" cx="0" cy="0" r="1" gradientUnits="userSpaceOnUse" gradientTransform="translate(15.8975 28.5424) rotate(59.2776) scale(13.0185 16.6796)">
<stop stop-color="#3B52FC"/>
<stop offset="1" stop-color="#3B52FC" stop-opacity="0"/>
</radialGradient>
<radialGradient id="paint4_radial_15329_41357" cx="0" cy="0" r="1" gradientUnits="userSpaceOnUse" gradientTransform="translate(46.8497 25.4088) rotate(90.1891) scale(19.3772 24.8264)">
<stop stop-color="#2A6BFF"/>
<stop offset="1" stop-color="#2A6BFF" stop-opacity="0"/>
</radialGradient>
<radialGradient id="paint5_radial_15329_41357" cx="0" cy="0" r="1" gradientUnits="userSpaceOnUse" gradientTransform="translate(31.9859 20.819) rotate(157.682) scale(14.7204 36.946)">
<stop stop-color="#00A3FF"/>
<stop offset="0.943718" stop-color="#00A3FF" stop-opacity="0.29"/>
</radialGradient>
<radialGradient id="paint6_radial_15329_41357" cx="0" cy="0" r="1" gradientUnits="userSpaceOnUse" gradientTransform="translate(26.7052 11.1478) rotate(78.8158) scale(17.1447 31.7165)">
<stop stop-color="#FF7272"/>
<stop offset="0.179674" stop-color="#FF72A7"/>
<stop offset="1" stop-color="#7A51FF" stop-opacity="0"/>
</radialGradient>
<radialGradient id="paint7_radial_15329_41357" cx="0" cy="0" r="1" gradientUnits="userSpaceOnUse" gradientTransform="translate(30.6701 9.16533) rotate(84.1933) scale(41.7181 17.1813)">
<stop stop-color="#FFBFAB"/>
<stop offset="0.364808" stop-color="#FF67A8" stop-opacity="0.87"/>
<stop offset="0.723967" stop-color="#6BAFFF" stop-opacity="0"/>
</radialGradient>
<radialGradient id="paint8_radial_15329_41357" cx="0" cy="0" r="1" gradientUnits="userSpaceOnUse" gradientTransform="translate(32.0131 29.5017) rotate(-50.3051) scale(12.7161 19.2855)">
<stop stop-color="#2238FF"/>
<stop offset="1" stop-color="#0047FF" stop-opacity="0"/>
</radialGradient>
<linearGradient id="paint9_linear_15329_41357" x1="44.0358" y1="30.397" x2="36.1699" y2="26.8158" gradientUnits="userSpaceOnUse">
<stop stop-color="#29EDFE"/>
<stop offset="1" stop-color="#29EDFE" stop-opacity="0"/>
</linearGradient>
<radialGradient id="paint10_radial_15329_41357" cx="0" cy="0" r="1" gradientUnits="userSpaceOnUse" gradientTransform="translate(32.0398 52.4633) rotate(-65.2378) scale(16.7002 37.5982)">
<stop stop-color="#4DEAFF"/>
<stop offset="0.943718" stop-color="#00A3FF" stop-opacity="0.1"/>
</radialGradient>
<radialGradient id="paint11_radial_15329_41357" cx="0" cy="0" r="1" gradientUnits="userSpaceOnUse" gradientTransform="translate(29.9587 40.7145) rotate(9.61547) scale(15.1859 14.5329)">
<stop stop-color="#35AAFF"/>
<stop offset="0.0001" stop-color="#0057FF"/>
<stop offset="1" stop-color="#00A3FF" stop-opacity="0"/>
</radialGradient>
<radialGradient id="paint12_radial_15329_41357" cx="0" cy="0" r="1" gradientUnits="userSpaceOnUse" gradientTransform="translate(45.9543 28.5423) rotate(125.701) scale(15.6712 8.2718)">
<stop stop-color="#2241FF"/>
<stop offset="1" stop-color="#1EA0FF" stop-opacity="0"/>
</radialGradient>
<radialGradient id="paint13_radial_15329_41357" cx="0" cy="0" r="1" gradientUnits="userSpaceOnUse" gradientTransform="translate(31.9859 52.5029) rotate(-115.402) scale(16.5862 38.0435)">
<stop stop-color="#64E3FF"/>
<stop offset="1" stop-color="#00A3FF" stop-opacity="0.29"/>
</radialGradient>
<radialGradient id="paint14_radial_15329_41357" cx="0" cy="0" r="1" gradientUnits="userSpaceOnUse" gradientTransform="translate(19.095 34.5541) rotate(50.7041) scale(16.1349 15.6422)">
<stop stop-color="#3687FF"/>
<stop offset="1" stop-color="#354BFF" stop-opacity="0"/>
</radialGradient>
<radialGradient id="paint15_radial_15329_41357" cx="0" cy="0" r="1" gradientUnits="userSpaceOnUse" gradientTransform="translate(17.8159 30.397) rotate(46.273) scale(10.177 5.5302)">
<stop stop-color="#1858FF"/>
<stop offset="1" stop-color="#3A70FF" stop-opacity="0"/>
</radialGradient>
<clipPath id="clip0_15329_41357">
<rect width="64" height="64" rx="12" fill="white"/>
</clipPath>
</defs>
</svg>
