<svg width="94" height="34" viewBox="0 0 94 34" fill="none" xmlns="http://www.w3.org/2000/svg">
<path opacity="0.4" d="M0 7.23804C0.420788 7.23804 0.761905 7.57915 0.761905 7.99994V33.9047C0.341116 33.9047 0 33.5636 0 33.1428V7.23804Z" fill="#ED6F47"/>
<path fill-rule="evenodd" clip-rule="evenodd" d="M13.7169 14.8572H6.85742V26.2857C8.12176 26.2857 9.14078 25.2579 9.14078 24.0038V21.7219H13.7169C14.9813 21.7219 16.0003 20.694 16.0003 19.4399V17.158C16.0003 15.8944 14.9718 14.876 13.7169 14.876V14.8572ZM13.7169 19.4305H9.14078V17.1485H13.7169V19.4305Z" fill="#EB721B"/>
<path fill-rule="evenodd" clip-rule="evenodd" d="M25.1455 14.8572H20.5693C19.305 14.8572 18.286 15.8858 18.286 17.141V24.0019C18.286 25.2665 19.3144 26.2857 20.5693 26.2857H25.1455C26.4098 26.2857 27.4288 25.2571 27.4288 24.0019V17.141C27.4288 15.8764 26.4004 14.8572 25.1455 14.8572ZM25.1455 24.0114H20.5693V17.141H25.1455V24.0114Z" fill="#EB721B"/>
<path fill-rule="evenodd" clip-rule="evenodd" d="M29.7146 14.8572H36.5741V14.8666C37.829 14.8666 38.8574 15.885 38.8574 17.1485V19.4305C38.8574 20.6846 37.8384 21.7124 36.5741 21.7124L38.8574 26.2857H37.5648C36.7156 26.2857 35.9325 25.8143 35.555 25.0505L33.885 21.7219H31.9979V24.0038C31.9979 25.2579 30.9789 26.2857 29.7146 26.2857V14.8572ZM31.9979 19.4305H36.5741V17.1485H31.9979V19.4305Z" fill="#EB721B"/>
<path d="M42.286 14.8572C41.0236 14.8572 40.0003 15.8805 40.0003 17.1429H43.4288V26.2857H45.7146V17.1429H46.8574C48.1198 17.1429 49.1431 16.1195 49.1431 14.8572H42.286Z" fill="#EB721B"/>
<path d="M50.286 14.8572V26.2857C51.5483 26.2857 52.5717 25.2624 52.5717 24V21.7143H57.1431V19.4286H52.5717V17.1429H57.1431C58.4055 17.1429 59.4288 16.1195 59.4288 14.8572H50.286Z" fill="#EB721B"/>
<path fill-rule="evenodd" clip-rule="evenodd" d="M67.4312 14.8572H62.855C61.5907 14.8572 60.5717 15.8858 60.5717 17.141V24.0019C60.5717 25.2665 61.6002 26.2857 62.855 26.2857H67.4312C68.6955 26.2857 69.7146 25.2571 69.7146 24.0019V17.141C69.7146 15.8764 68.6861 14.8572 67.4312 14.8572ZM67.4312 24.0114H62.855V17.141H67.4312V24.0114Z" fill="#EB721B"/>
<path d="M72.0003 14.8572C73.2626 14.8572 74.286 15.8805 74.286 17.1429V24H76.5717C77.8341 24 78.8574 25.0234 78.8574 26.2857H72.0003V14.8572Z" fill="#EB721B"/>
<path d="M82.286 17.1429C82.286 15.8805 81.2626 14.8572 80.0003 14.8572V24C80.0003 25.2624 81.0236 26.2857 82.286 26.2857V17.1429Z" fill="#EB721B"/>
<path fill-rule="evenodd" clip-rule="evenodd" d="M86.855 14.8572H91.4312C92.6861 14.8572 93.7145 15.8764 93.7145 17.141V24.0019C93.7145 25.2571 92.6955 26.2857 91.4312 26.2857H86.855C85.6001 26.2857 84.5717 25.2665 84.5717 24.0019V17.141C84.5717 15.8858 85.5907 14.8572 86.855 14.8572ZM91.4312 24.0114V17.141H86.855V24.0114H91.4312Z" fill="#EB721B"/>
</svg>
