<svg width="64" height="64" viewBox="0 0 64 64" fill="none" xmlns="http://www.w3.org/2000/svg">
<g clip-path="url(#clip0_17721_11955)">
<rect width="64" height="64" fill="#F4F6FF"/>
<path d="M41.1003 27.5969L32.0286 23.3139V11.75L41.1003 27.5969Z" fill="#800010"/>
<path d="M41.1003 27.6295L32.0286 23.3494V32.7656L41.1003 27.6295Z" fill="#FF596E"/>
<path d="M41.1003 31.9604L32.0286 46.5442V37.1076L41.1003 31.9604Z" fill="#800010"/>
<path d="M43.2004 33.6831L32.0857 52.1711H37.6717L45.3489 39.7118L43.2004 33.6831Z" fill="#FF596E"/>
<path d="M49.9997 38.5071L43.2005 49.9329L37.6718 52.1722L45.3489 39.7128L49.9997 38.5071Z" fill="#800010"/>
<path d="M49.9998 38.5053L49.9998 32.0747L45.3491 39.7111L49.9998 38.5053Z" fill="#FF596E"/>
<path d="M43.1672 33.6824L49.9997 32.0747L45.349 39.7111L43.1672 33.6824Z" fill="#800010"/>
<path d="M22.8997 27.5969L31.9714 23.3139V11.75L22.8997 27.5969Z" fill="#FF596E"/>
<path d="M22.8997 27.6295L31.9714 23.3494V32.7656L22.8997 27.6295Z" fill="#800010"/>
<path d="M22.8997 31.9604L31.9714 46.5442V37.1076L22.8997 31.9604Z" fill="#FF596E"/>
<path d="M20.7996 33.6831L31.9143 52.1711H26.3283L18.6511 39.7118L20.7996 33.6831Z" fill="#800010"/>
<path d="M14.0003 38.5071L20.7995 49.9329L26.3282 52.1722L18.6511 39.7128L14.0003 38.5071Z" fill="#FF596E"/>
<path d="M14.0002 38.5053L14.0002 32.0747L18.6509 39.7111L14.0002 38.5053Z" fill="#800010"/>
<path d="M20.8328 33.6824L14.0003 32.0747L18.651 39.7111L20.8328 33.6824Z" fill="#FF596E"/>
</g>
<defs>
<clipPath id="clip0_17721_11955">
<rect width="64" height="64" rx="12" fill="white"/>
</clipPath>
</defs>
</svg>
