<svg width="64" height="64" viewBox="0 0 64 64" fill="none" xmlns="http://www.w3.org/2000/svg">
    <g clip-path="url(#clip0_15331_33899)">
        <rect width="64" height="64" rx="12" fill="url(#paint0_radial_15331_33899)"/>
        <path fill-rule="evenodd" clip-rule="evenodd" d="M26.052 28.0556C26.052 28.0556 38.5785 12.8371 52.3179 14.3206C53.797 28.06 38.5828 40.5821 38.5828 40.5821L37.0994 47.5892L30.3671 52.9777C30.3671 52.9777 29.1542 48.5316 28.4822 45.7C27.2039 46.1756 24.0362 45.0281 24.0362 45.0281L22.5572 46.5115C22.3942 46.6701 22.1759 46.7588 21.9485 46.7588C21.7211 46.7588 21.5028 46.6701 21.3398 46.5115L20.1313 45.2986C19.974 45.1359 19.8861 44.9184 19.8861 44.6921C19.8861 44.4658 19.974 44.2484 20.1313 44.0856L21.6104 42.6022C21.6104 42.6022 20.4629 39.4433 20.9341 38.1606C18.1068 37.4843 13.6608 36.2713 13.6608 36.2713L19.071 29.5391L26.052 28.0556ZM37.0945 34.7651C37.9401 34.5991 38.7176 34.1865 39.3289 33.5793C39.7372 33.1738 40.0612 32.6915 40.2824 32.1602C40.5035 31.6289 40.6173 31.0591 40.6173 30.4837C40.6173 29.9082 40.5035 29.3384 40.2824 28.8072C40.0612 28.2759 39.7372 27.7936 39.3289 27.3881C38.7176 26.7808 37.9401 26.3682 37.0945 26.2023C36.249 26.0363 35.3732 26.1244 34.5777 26.4555C33.7822 26.7866 33.1025 27.3459 32.6244 28.0627C32.1463 28.7796 31.8911 29.622 31.8911 30.4837C31.8911 31.3454 32.1463 32.1877 32.6244 32.9046C33.1025 33.6215 33.7822 34.1807 34.5777 34.5118C35.3732 34.8429 36.249 34.931 37.0945 34.7651ZM19.0523 48.682C19.1077 48.5487 19.1362 48.4058 19.1362 48.2614C19.1342 48.0455 19.0686 47.8349 18.9476 47.656C18.8267 47.4771 18.6557 47.3377 18.4561 47.2554C18.2565 47.173 18.037 47.1512 17.8251 47.1928C17.6131 47.2344 17.4181 47.3375 17.2644 47.4892L0.946419 63.8072C1.4569 64.3307 1.97611 64.8412 2.51277 65.3386L18.8133 49.0381C18.9157 48.9363 18.9969 48.8153 19.0523 48.682ZM12.5298 49.0732C12.5303 49.2166 12.5024 49.3586 12.4478 49.4912C12.3931 49.6237 12.3128 49.7441 12.2113 49.8455L-0.354408 62.4112C-0.845985 61.8673 -1.32011 61.3088 -1.77678 60.7358L10.6624 48.2966C10.8158 48.144 11.011 48.0403 11.2233 47.9985C11.4356 47.9567 11.6555 47.9788 11.8552 48.0619C12.055 48.145 12.2257 48.2853 12.3457 48.4653C12.4658 48.6453 12.5299 48.8568 12.5298 49.0732ZM18.2419 55.2804C18.2966 55.1478 18.3245 55.0058 18.324 54.8624C18.324 54.646 18.26 54.4345 18.1399 54.2545C18.0198 54.0745 17.8491 53.9341 17.6494 53.8511C17.4496 53.768 17.2297 53.7459 17.0174 53.7877C16.8051 53.8295 16.61 53.9332 16.4566 54.0857L3.93447 66.6079C4.48859 67.0922 5.06015 67.5634 5.64044 67.9997L18.0055 55.6346C18.1069 55.5333 18.1873 55.4129 18.2419 55.2804Z" fill="#EE6E56"/>
        <path fill-rule="evenodd" clip-rule="evenodd" d="M26.8018 27.3265C26.8018 27.3265 38.866 12.6696 52.0984 14.0983C53.5229 27.3307 38.8702 39.3907 38.8702 39.3907L37.4415 46.1392L30.9577 51.3288C30.9577 51.3288 29.7895 47.0469 29.1424 44.3197C27.9112 44.7778 24.8604 43.6726 24.8604 43.6726L23.4359 45.1013C23.279 45.254 23.0687 45.3395 22.8498 45.3395C22.6308 45.3395 22.4205 45.254 22.2636 45.1013L21.0996 43.9331C20.9481 43.7764 20.8634 43.567 20.8634 43.349C20.8634 43.1311 20.9481 42.9217 21.0996 42.765L22.5241 41.3362C22.5241 41.3362 21.4189 38.2939 21.8728 37.0585C19.1498 36.4072 14.8679 35.239 14.8679 35.239L20.0785 28.7552L26.8018 27.3265ZM37.4368 33.7884C38.2512 33.6285 39 33.2311 39.5888 32.6463C39.982 32.2558 40.2941 31.7913 40.507 31.2796C40.72 30.7679 40.8296 30.2192 40.8296 29.6649C40.8296 29.1107 40.72 28.562 40.507 28.0503C40.2941 27.5386 39.982 27.0741 39.5888 26.6836C39 26.0987 38.2512 25.7014 37.4368 25.5415C36.6225 25.3817 35.7791 25.4666 35.0129 25.7854C34.2467 26.1043 33.5921 26.6429 33.1317 27.3333C32.6712 28.0238 32.4254 28.8351 32.4254 29.6649C32.4254 30.4948 32.6712 31.3061 33.1317 31.9965C33.5921 32.6869 34.2467 33.2256 35.0129 33.5444C35.7791 33.8633 36.6225 33.9482 37.4368 33.7884ZM20.0604 47.1919C20.1138 47.0636 20.1413 46.9259 20.1412 46.7869C20.1393 46.5789 20.0761 46.3761 19.9596 46.2038C19.8432 46.0315 19.6785 45.8973 19.4862 45.818C19.294 45.7386 19.0826 45.7177 18.8785 45.7577C18.6744 45.7978 18.4866 45.897 18.3385 46.0431L2.62272 61.759C3.11436 62.2632 3.61441 62.7549 4.13127 63.2339L19.8303 47.5349C19.9288 47.4369 20.0071 47.3203 20.0604 47.1919ZM13.7787 47.5679C13.7791 47.706 13.7523 47.8428 13.6996 47.9705C13.647 48.0981 13.5696 48.2141 13.4719 48.3117L1.36988 60.4137C0.896445 59.8899 0.439819 59.352 0 58.8001L11.9802 46.82C12.1279 46.673 12.3159 46.5731 12.5203 46.5329C12.7248 46.4927 12.9365 46.5139 13.1289 46.5939C13.3213 46.6739 13.4857 46.8092 13.6014 46.9825C13.717 47.1558 13.7787 47.3596 13.7787 47.5679ZM19.28 53.546C19.3326 53.4184 19.3595 53.2816 19.359 53.1435C19.359 52.9351 19.2973 52.7314 19.1817 52.5581C19.0661 52.3847 18.9017 52.2495 18.7093 52.1695C18.5169 52.0895 18.3051 52.0682 18.1007 52.1085C17.8962 52.1487 17.7083 52.2486 17.5605 52.3955L5.50051 64.4555C6.03417 64.922 6.58465 65.3758 7.14353 65.796L19.0522 53.8873C19.1499 53.7897 19.2273 53.6737 19.28 53.546Z" fill="white"/>
    </g>
    <defs>
        <radialGradient id="paint0_radial_15331_33899" cx="0" cy="0" r="1" gradientUnits="userSpaceOnUse" gradientTransform="translate(22.961 38.5292) scale(47.1489)">
            <stop offset="0.41" stop-color="#F8B26C"/>
            <stop offset="1" stop-color="#EB5E50"/>
        </radialGradient>
        <clipPath id="clip0_15331_33899">
            <rect width="64" height="64" rx="12" fill="white"/>
        </clipPath>
    </defs>
</svg>
