<svg width="64" height="64" viewBox="0 0 64 64" fill="none" xmlns="http://www.w3.org/2000/svg">
    <rect width="64" height="64" rx="12" fill="#79BF26"/>
    <path fill-rule="evenodd" clip-rule="evenodd" d="M10.9999 25.7113H16.1164V14.0002H32.1764C34.7583 14.1185 40.7749 15.2494 44.1859 18.8266C47.5969 22.4038 48.6865 24.8123 48.8049 25.5694H53.3529V29.8279H49.7998C49.8708 30.2065 50.013 31.1907 50.013 32.0992C50.013 33.0077 49.8708 33.9446 49.7998 34.2995H53.3529V38.4161H48.8049C47.9995 40.711 45.2092 45.7976 40.4907 47.7849C35.7721 49.7723 32.2712 50.0798 31.1105 49.9852H16.1164V38.4161H10.9999V34.2995H16.1164V29.8279H10.9999V25.7113ZM32.1764 17.691H20.167V25.5694H44.1859C43.3332 24.0079 42.8357 23.213 40.5618 20.885C38.2878 18.5569 34.024 17.7857 32.1764 17.691ZM45.394 29.828H20.167V34.2995H45.394C45.4887 33.9446 45.6782 33.0077 45.6782 32.0992C45.6782 31.1907 45.4887 30.2065 45.394 29.828ZM20.167 38.4161H44.1859C43.5227 40.0249 41.2297 43.5974 37.364 45.0169C33.6673 46.3743 32.102 46.3688 31.2265 46.3657L31.1105 46.3654H20.167V38.4161Z" fill="white"/>
</svg>
