<svg id="search" viewBox="0 0 24 24" fill="none" xmlns="http://www.w3.org/2000/svg">
  <path d="M11.0005 19C12.7755 18.9996 14.4993 18.4054 15.8975 17.312L19.5865 21.001C19.977 21.3915 20.61 21.3915 21.0005 21.001C21.391 20.6105 21.391 19.9775 21.0005 19.587L17.3115 15.898C18.4055 14.4997 19.0001 12.7754 19.0005 11C19.0005 6.589 15.4115 3 11.0005 3C6.58949 3 3.00049 6.589 3.00049 11C3.00049 15.411 6.58949 19 11.0005 19ZM11.0005 5C14.3095 5 17.0005 7.691 17.0005 11C17.0005 14.309 14.3095 17 11.0005 17C7.69149 17 5.00049 14.309 5.00049 11C5.00049 7.691 7.69149 5 11.0005 5Z" fill="currentColor"/>
</svg>
