<svg width="64" height="64" viewBox="0 0 64 64" fill="none" xmlns="http://www.w3.org/2000/svg">
    <rect width="64" height="64" rx="12" fill="url(#paint0_linear_14719_39688)"/>
    <path d="M28.7633 59.4928L10.1208 37.8047C9.77125 37.3988 10.2453 36.8123 10.7154 37.0693L23.2509 43.8715C23.8416 44.193 24.2996 44.7192 24.5326 45.35L29.5789 59.0105C29.7638 59.5128 29.1129 59.8985 28.7633 59.4928Z" fill="white"/>
    <path d="M31.4549 54.5099L26.3121 29.0852C26.2359 28.7076 26.3121 28.3098 26.5171 27.9844L35.4929 13.9381C35.6736 13.6569 36.1115 13.8056 36.0795 14.1431L32.0857 54.4777C32.0495 54.8433 31.5273 54.8675 31.4549 54.5099Z" fill="white"/>
    <path d="M35.9063 47.0156L45.7741 32.6601C46.1115 32.1699 46.6981 31.9168 47.2887 32.0052L53.6007 32.9613C54.0065 33.0216 54.1431 33.54 53.8217 33.7931L36.4004 47.4817C36.0911 47.7227 35.6854 47.3411 35.9063 47.0197V47.0156Z" fill="white"/>
    <path d="M37.3809 37.1752L42.4272 5.26992C42.4794 4.94047 42.9375 4.90029 43.0459 5.21769L47.5218 18.2514C47.6544 18.6411 47.6222 19.067 47.4294 19.4326L37.9795 37.376C37.8108 37.6936 37.3246 37.5328 37.3809 37.1793V37.1752Z" fill="white"/>
    <path d="M15.7492 30.8795L16.8782 22.8639C16.9264 22.5344 17.3764 22.4741 17.5089 22.7795L24.4718 39.0074C24.6124 39.3369 24.2026 39.622 23.9414 39.377L16.171 32.0848C15.8416 31.7754 15.6809 31.3213 15.7451 30.8754L15.7492 30.8795Z" fill="white"/>
    <defs>
        <linearGradient id="paint0_linear_14719_39688" x1="121.662" y1="-4.66855" x2="122.222" y2="181.356" gradientUnits="userSpaceOnUse">
            <stop stop-color="#FF8E00"/>
            <stop offset="1" stop-color="#F2A52B"/>
        </linearGradient>
    </defs>
</svg>
