<svg width="64" height="64" viewBox="0 0 64 64" fill="none" xmlns="http://www.w3.org/2000/svg">
    <g clip-path="url(#clip0_15332_116934)">
        <rect width="64" height="64" rx="12" fill="#CAFFCF"/>
        <path d="M64.5999 10.769C64.5999 10.769 67.659 11.3066 70.8079 12.107C64.3739 5.47741 54.7414 2.4877 49.2052 1.7413C41.5775 0.712921 35.9874 3.15347 35.655 3.29654L38.5682 -0.193855C38.5682 -0.193855 29.0965 -2.41032 24.3448 7.28328C23.7739 5.0142 23.3972 1.76919 23.3972 1.76919C23.3972 1.76919 17.8258 5.46489 19.1847 13.0386C13.7459 10.1759 5.95437 6.18174 5.65509 6.07876C5.23279 5.9592 5.08489 6.12715 5.08489 6.12715C5.08489 6.12715 4.93698 6.2951 5.26459 6.65243C5.8666 7.29728 17.499 18.5735 20.0798 20.8004C19.1661 22.9319 19.0251 23.9777 19.4993 25.1063C20.1697 26.6372 20.1317 27.3837 19.8677 28.4128C19.6037 29.442 17.2773 38.3352 16.882 39.4093C16.4866 40.4833 13.3723 44.0719 13.3377 45.2572C13.3032 46.4426 14.2308 51.6408 15.571 52.3852C16.5669 52.8952 19.0427 54.0432 20.7651 54.2754C21.3802 54.3584 21.9504 54.31 22.2296 54.0971C23.3998 53.3154 23.7322 53.1723 24.4704 53.2718C24.5319 53.2801 24.5934 53.2884 24.6549 53.2967C24.9625 53.3382 25.3233 53.4495 25.7539 53.5075C26.7381 53.6402 28.0547 53.6298 29.0936 52.893C30.6293 51.7222 33.2156 50.1919 34.0699 49.4303C35.1502 48.3859 35.8579 46.8529 35.8275 45.2204C35.842 43.7192 36.8158 42.5352 37.9127 41.3678C39.2888 39.9876 41.8149 37.5097 41.8149 37.5097C45.6281 41.2807 47.618 46.4968 46.8882 51.91C45.5944 61.5061 36.1836 68.129 25.8494 66.7357C24.25 66.52 22.7371 66.1282 21.249 65.5517C25.7616 67.8512 29.6853 68.9439 32.9456 69.3835C39.8966 70.3206 43.9274 68.2961 43.9274 68.2961C43.9274 68.2961 42.4117 69.7828 40.0632 71.4078C40.1247 71.4161 40.1247 71.4161 40.1247 71.4161C51.8433 71.3676 58.7182 62.6492 58.7182 62.6492C58.7182 62.6492 57.873 65.6668 57.0374 67.6836C73.9051 58.2457 73.2622 43.5032 73.267 43.0028C73.3652 43.2039 74.6542 45.2566 75.3212 46.3487C81.1986 21.3368 64.5999 10.769 64.5999 10.769Z" fill="#282D3B"/>
        <path fill-rule="evenodd" clip-rule="evenodd" d="M30.8784 48.8721L30.8787 48.8719L30.879 48.8717C31.5886 48.3838 32.3334 47.8716 32.5549 47.6603C33.1465 46.9885 33.5785 46.1072 33.5881 45.1064L33.6047 44.9834C33.2847 42.2471 30.8303 40.4757 29.9609 40.4211C28.9601 40.4114 27.5819 40.4135 27.1098 40.663C28.0754 39.5405 29.2655 39.0747 30.4142 38.9164C31.6936 36.3957 34.3918 31.2479 34.8722 30.9369C35.1431 30.7855 35.7831 30.6839 36.8703 30.5173C37.502 30.4772 38.3964 30.3473 38.536 30.2409C38.7818 29.9617 41.0719 26.0664 41.9785 24.5244L41.9818 24.5187C42.1645 24.208 42.2903 23.9939 42.3311 23.9257C42.3277 23.4868 41.5203 20.1837 40.6349 16.9954C37.1909 18.8484 33.8906 17.7772 33.8906 17.7772C33.8906 17.7772 36.3808 17.424 39.3307 14.1264C42.219 10.8205 40.6148 5.53109 40.6148 5.53109C40.6148 5.53109 30.479 17.0667 29.4001 17.1718C28.3212 17.2768 27.7572 15.8855 27.7572 15.8855C27.7572 15.8855 24.7631 21.3692 23.866 23.3778C22.9689 25.3863 23.4417 27.4542 23.8626 28.5131C24.3451 29.5802 25.3051 32.2149 23.1812 34.4965C23.5765 33.4224 22.7015 31.5508 22.0428 30.3972C21.3703 33.0624 19.6998 39.4135 19.3128 40.426C19.1008 41.1135 18.602 41.8192 17.7519 43.022L17.6229 43.2045C17.4916 43.3975 17.3253 43.6301 17.1482 43.8779C16.6935 44.5141 16.167 45.2506 15.9745 45.6754C16.0713 46.8158 16.6374 49.5853 17.1447 50.4679C17.9645 50.8916 19.1533 51.365 20.1741 51.6906C20.6662 51.7569 21.3145 51.5938 22.2835 50.9102C22.4713 50.7786 22.6522 50.6534 22.8259 50.5332L22.8262 50.533C24.3161 49.5021 25.2901 48.8281 25.7587 47.433C25.9303 46.9342 26.067 46.3332 26.2037 45.7323C26.4771 44.5305 26.7504 43.3286 27.3034 42.9438C28.0712 42.3584 29.589 42.2499 30.7163 42.715C29.7936 42.5906 28.6898 42.8802 28.6898 42.8802C28.6898 42.8802 30.5152 42.8132 31.0177 44.1962C31.5202 45.5792 30.867 46.2427 29.6603 46.8316C28.6546 47.3223 25.5665 49.7871 24.478 50.8929L26.3234 51.1417C27.0615 51.2412 27.5702 51.1846 27.8495 50.9717C28.3049 50.6244 28.8425 50.2616 29.3915 49.891L29.392 49.8907L29.3932 49.8899C29.6851 49.6929 29.9801 49.4937 30.2678 49.2935C30.4579 49.1612 30.666 49.0182 30.8771 48.873L30.8784 48.8721ZM38.0853 13.1442C39.724 11.6741 39.5021 9.1389 39.5021 9.1389L34.5597 14.6731C34.4981 14.6648 36.0277 14.9336 38.0853 13.1442ZM19.758 44.5572L20.5818 42.163C20.5818 42.163 18.0708 45.4571 17.82 45.9243C17.5608 46.453 17.7356 47.4787 18.5436 47.525C19.3516 47.5713 20.4934 46.5353 20.6095 45.6741C20.7588 44.5668 19.758 44.5572 19.758 44.5572ZM33.7822 27.4078C35.1334 26.2121 34.8583 23.6071 32.7634 22.8862C33.4911 21.6691 34.6391 19.1933 34.6391 19.1933C34.6391 19.1933 27.0378 28.1896 26.4593 28.2995C25.8808 28.4094 25.6175 26.1818 25.6175 26.1818C23.8433 30.5147 26.8975 31.5528 27.4574 30.1877C29.2378 29.9893 32.4393 28.542 33.7822 27.4078Z" fill="white"/>
        <path d="M27.4932 45.4925C27.3794 46.0835 27.1936 47.0483 26.6731 47.6189C26.7217 47.5818 26.873 47.4598 27.0702 47.3007L27.0707 47.3003C27.4395 47.0027 27.9686 46.5759 28.2869 46.3333C28.5017 46.1867 28.7355 46.0792 28.9589 45.9764C29.453 45.7491 29.8963 45.5452 29.9706 44.9945C30.0867 44.1333 28.9428 43.7912 28.4341 43.8479C27.9254 43.9045 27.6946 44.6876 27.575 45.1099C27.5495 45.1999 27.524 45.3326 27.4932 45.4925Z" fill="white"/>
        <path d="M52.801 39.1788C53.8391 36.1246 54.2655 33.4263 54.3795 31.1869C56.3473 34.7091 57.3011 38.7834 57.1927 42.8399C57.1878 43.3403 57.6136 43.8987 58.0394 44.4572C58.4202 44.8843 58.846 45.4428 58.8045 45.7503C58.6137 47.1652 58.3 48.5634 57.8632 49.945C57.7813 50.1121 57.2423 50.3301 56.7914 50.5125L56.7179 50.5422C56.0613 50.7668 55.4662 50.9998 55.2769 51.4753C53.285 56.0294 49.8299 59.8225 45.5565 62.2527C52.0817 57.0571 56.1767 47.5882 52.801 39.1788Z" fill="white"/>
        <path d="M55.7441 51.7262C53.7356 56.4033 50.0794 60.2946 45.6664 62.8312C54.7026 59.9158 61.7157 52.0302 63.0593 42.065C64.8092 29.0857 56.41 17.0554 43.9822 14.0019C43.4604 14.6205 42.9469 15.1776 42.4499 15.6117C43.0658 18.0121 44.6603 24.3023 44.6189 24.6099C44.5691 24.979 42.994 27.8356 42.8544 27.942C42.723 27.9869 41.2917 27.9192 40.738 27.8446C39.9239 29.238 39.118 30.5698 38.9701 30.7378C38.7524 30.959 38.1738 31.0689 36.9636 31.2189C36.8343 31.2394 36.6921 31.2607 36.5464 31.2826L36.5448 31.2829L36.5442 31.2829L36.5439 31.283C35.9689 31.3693 35.3394 31.4638 35.2281 31.5486C34.8708 31.8762 32.6211 36.0197 31.0992 38.9461C32.6087 38.8991 33.859 39.3808 34.15 39.5453C37.1627 35.3168 39.4014 33.1133 39.8935 33.1797C39.9466 33.1802 40.0588 33.1993 40.2204 33.2267C41.5802 33.4579 46.4418 34.2846 49.1357 29.6657C52.0359 24.6277 49.5792 19.6575 49.4112 19.3175L49.4051 19.3052L49.4142 19.3112C49.6678 19.4795 54.1379 22.4447 54.3692 29.8702C56.6645 33.7497 57.8762 38.2347 57.7629 42.7915C57.7319 43.0214 57.9667 43.3573 58.1949 43.6837L58.1953 43.6842L58.1957 43.6848C58.2724 43.7946 58.3484 43.9033 58.4133 44.0065C58.8923 44.6348 59.3712 45.2631 59.2966 45.8167C59.0976 47.293 58.7755 48.7528 58.3387 50.1344C58.1493 50.6099 57.4844 50.8961 56.8278 51.1207C56.737 51.165 56.6362 51.2113 56.5338 51.2583L56.5328 51.2587L56.5325 51.2588C56.1818 51.4197 55.8109 51.5899 55.7441 51.7262Z" fill="white"/>
        <path d="M23.2979 19.2301C23.8363 18.4885 23.5419 17.8851 23.2142 17.5278L23.1078 17.3881C22.4194 16.9195 18.0381 14.5752 13.7017 12.3621C17.3435 15.5463 21.4241 18.7269 22.1126 19.1955C22.633 19.5162 22.9938 19.6275 23.2979 19.2301Z" fill="white"/>
        <path d="M30.8787 48.8721L30.8784 48.8723L30.8745 48.875C30.6642 49.0196 30.4571 49.162 30.2678 49.2937C29.9801 49.4939 29.6851 49.6931 29.3932 49.8901L29.392 49.8909L29.3915 49.8912C28.8425 50.2618 28.3049 50.6247 27.8494 50.9719C27.5702 51.1848 27.0615 51.2415 26.3234 51.1419L24.478 50.8931C24.9145 50.4496 25.6727 49.7876 26.4892 49.1219C26.9313 48.8112 27.375 48.5168 27.7753 48.2687C28.4765 47.8317 29.1548 47.564 29.7483 47.3297C30.8334 46.9013 31.635 46.5849 31.7744 45.551C32.0958 43.46 30.744 42.8645 29.7028 42.7096C30.0237 42.6795 30.3819 42.6702 30.7163 42.7153C29.589 42.2501 28.0712 42.3586 27.3033 42.9441C26.7504 43.3288 26.477 44.5307 26.2037 45.7325C26.067 46.3335 25.9303 46.9344 25.7586 47.4332C25.2901 48.8283 24.3161 49.5023 22.8261 50.5333L22.8216 50.5364C22.6492 50.6557 22.4698 50.7799 22.2835 50.9104C22.24 50.9411 22.1972 50.9708 22.1549 50.9994L18.2083 49.5467C18.2083 49.5467 21.1056 48.4968 21.7518 46.9555C22.3232 45.6302 21.8987 41.2564 21.7895 40.1312C21.7768 40.0001 21.7684 39.9131 21.7663 39.8801C21.7696 39.8844 21.7768 39.893 21.7875 39.9059C21.9508 40.1014 22.9286 41.2722 23.2302 42.9585C24.5793 40.3846 26.2194 37.9752 26.6217 37.7789C26.9673 37.6103 30.9579 36.1296 32.0745 35.7161C31.4522 36.8912 30.8506 38.0567 30.4142 38.9166C29.2655 39.0749 28.0753 39.5408 27.1098 40.6632C27.5819 40.4137 28.96 40.4116 29.9608 40.4213C30.8303 40.4759 33.2847 42.2473 33.6047 44.9836L33.5881 45.1066C33.5784 46.1075 33.1465 46.9887 32.5548 47.6605C32.3334 47.8718 31.5884 48.3841 30.8787 48.8721Z" fill="#94A6C3"/>
        <path d="M31.6026 38.9495C32.8804 39.0047 33.892 39.3997 34.15 39.5455C37.1627 35.317 39.4014 33.1135 39.8935 33.1799C39.9466 33.1804 40.0588 33.1995 40.2204 33.227C41.5802 33.4582 46.4417 34.2848 49.1357 29.6659C52.0359 24.6279 49.5792 19.6577 49.4112 19.3177L49.4051 19.3054L49.4142 19.3114C49.6626 19.4762 53.9577 22.3254 54.3498 29.4227C56.9255 33.4021 58.2411 38.1157 58.1235 42.9029C58.0821 43.2105 58.4546 43.6991 58.8354 44.1263C59.3144 44.7545 59.7934 45.3828 59.7188 45.9364C59.5197 47.4127 59.1977 48.8725 58.7609 50.2541C58.5932 50.675 58.0595 50.8994 57.478 51.1438L57.4776 51.144L57.4772 51.1442C57.402 51.1757 57.326 51.2077 57.25 51.2404C57.1589 51.2849 57.0579 51.3312 56.9551 51.3783L56.9547 51.3785C56.604 51.5394 56.2331 51.7096 56.1663 51.8459C54.3152 56.1174 51.1582 59.7301 47.2487 62.2621C53.4716 59.7872 58.5708 54.9037 61.2498 48.6393C62.1938 46.1551 62.6583 43.4819 62.5566 40.6822C62.034 27.8348 50.1018 19.7125 49.4051 19.3054C50.8442 28.1426 44.4847 32.1078 40.6011 31.6468C38.4481 31.3565 35.3662 32.3816 35.3662 32.3816L31.6026 38.9495Z" fill="#94A6C3"/>
        <path d="M34.5856 17.5852C34.3452 17.6107 34.0986 17.6311 33.8456 17.6459C33.8479 17.6463 33.8637 17.6533 33.8923 17.6661C33.9291 17.6825 33.9871 17.7085 34.0649 17.7417C34.1837 17.7134 34.3601 17.665 34.5856 17.5852Z" fill="#94A6C3"/>
        <path d="M34.5389 17.9309C35.667 18.1413 38.1124 18.3529 40.6349 16.9956C40.795 17.5719 40.9524 18.1519 41.1031 18.7181C38.1749 19.0953 35.6937 18.3629 34.5389 17.9309Z" fill="#94A6C3"/>
        <path d="M43.1287 18.2816C44.7544 17.7835 46.4495 16.8894 48.0854 15.3928C46.7766 14.8195 45.4059 14.352 43.9822 14.0022C43.4604 14.6208 42.9468 15.1778 42.4499 15.6119C42.6199 16.2746 42.8645 17.2337 43.1287 18.2816Z" fill="#94A6C3"/>
        <path d="M52.801 39.1791C53.8391 36.1248 54.2655 33.4265 54.3795 31.1871C56.3473 34.7093 57.3011 38.7837 57.1927 42.8401C57.1878 43.3405 57.6136 43.899 58.0394 44.4574C58.4202 44.8845 58.8459 45.443 58.8045 45.7506C58.6137 47.1654 58.3 48.5636 57.8632 49.9452C57.7813 50.1123 57.2424 50.3303 56.7915 50.5126L56.7179 50.5424C56.0613 50.767 55.4662 51 55.2768 51.4755C53.285 56.0296 49.8299 59.8227 45.5564 62.2529C52.0817 57.0574 56.1767 47.5884 52.801 39.1791Z" fill="#94A6C3"/>
        <path d="M28.1069 29.0855L32.0437 24.0421C32.0437 24.0421 33.7647 25.2136 32.6429 26.5655C31.242 28.1303 28.1069 29.0855 28.1069 29.0855Z" fill="#FFD923"/>
        <path d="M64.2433 59.7618C63.1548 60.8676 61.9349 62.0184 60.5387 63.0828C70.5307 48.8973 64.8472 33.9137 64.6142 33.3186C65.0932 33.9468 65.5639 34.6366 65.9814 35.2566C71.1589 42.8441 70.5287 53.0934 64.2433 59.7618Z" fill="#D82122"/>
        <path d="M74.2705 41.1341C72.5059 33.3178 69.4233 26.4511 61.5212 19.561C53.9017 12.8969 44.8627 12.1166 44.3623 12.1118C44.3008 12.1035 44.2393 12.0952 44.2393 12.0952C44.5634 12.0137 44.8793 11.9936 45.1951 11.9736C47.185 11.6155 49.7119 11.4552 52.2139 11.4793C58.8587 11.4357 65.1421 14.5376 68.994 19.8795C69.0472 19.9494 69.0472 19.9494 69.1004 20.0192C73.4762 26.1207 75.2091 33.2438 74.2705 41.1341Z" fill="#D82122"/>
        <path d="M61.0289 8.34636C52.0956 5.38827 46.0742 5.4533 41.6142 6.48041C41.5575 5.97171 41.2596 4.92944 40.9983 4.08001C39.4992 5.44368 37.8971 7.10664 36.8783 8.15929C34.3252 9.44349 33.1336 10.8486 33.1336 10.8486C35.1089 6.41757 39.5102 3.50359 44.4244 3.28928C45.8109 3.22568 47.3038 3.3017 48.9031 3.51732C53.1393 4.15108 57.2427 5.76905 61.0289 8.34636Z" fill="#D82122"/>
        <path d="M25.5427 15.5873C18.3788 14.3709 21.9057 6.32855 22.0951 5.85302C22.0868 5.91454 21.6998 12.5013 25.5427 15.5873Z" fill="#D82122"/>
        <path d="M34.6486 1.47015C28.6645 4.04548 28.7019 12.13 28.7019 12.13C24.4982 3.3585 34.1931 1.59664 34.6486 1.47015Z" fill="#D82122"/>
        <path fill-rule="evenodd" clip-rule="evenodd" d="M59.6905 45.0494C62.4308 40.3315 64 34.8491 64 29.0002V64.0001H0V29.0002C0 46.6734 14.3269 61.0002 32 61.0002C36.7105 61.0002 41.1834 59.9824 45.2105 58.1547C42.6623 56.3423 41 53.3653 41 50.0001C41 44.4773 45.4772 40.0001 51 40.0001C54.7217 40.0001 57.9686 42.0332 59.6905 45.0494Z" fill="url(#paint0_linear_15332_116934)"/>
        <path d="M52.2017 53.0344C53.5614 52.9291 54.7127 52.4585 55.5539 51.6342C56.4512 50.7548 56.9378 49.5295 56.9992 48.0794C57.0207 47.5731 56.5967 47.1576 56.08 47.1786C54.6003 47.2388 53.3499 47.7157 52.4526 48.595C52.1477 48.8938 51.8902 49.2325 51.6807 49.6065C51.3863 48.8884 50.9684 48.2577 50.4306 47.7307C49.3247 46.647 47.7717 46.0602 45.9163 46.0002C45.4035 45.9837 44.9836 46.3952 45.0005 46.8977C45.0617 48.7159 45.6604 50.2378 46.7663 51.3216C47.8161 52.3503 49.2688 52.9313 51.0006 53.0388L51.0008 54.2839C50.5928 54.3457 50.1843 54.4551 49.858 54.5552C49.605 54.6328 49.3844 54.7102 49.2269 54.7683C49.1479 54.7974 49.0843 54.8219 49.0399 54.8393C49.0176 54.848 49.0001 54.8549 48.9879 54.8598L48.9734 54.8657L48.9693 54.8674L48.9679 54.8679C48.9679 54.8679 49.3541 55.7743 48.9672 54.8682C48.6612 54.9937 48.517 55.3384 48.645 55.6383C48.773 55.9381 49.1247 56.0794 49.4307 55.954L49.4328 55.9532L49.4428 55.9491C49.452 55.9454 49.4663 55.9398 49.4852 55.9324C49.523 55.9176 49.5791 55.896 49.6498 55.87C49.7915 55.8177 49.9902 55.748 50.2168 55.6785C50.6847 55.535 51.2091 55.4123 51.5955 55.4111L51.6014 55.4111L51.6071 55.4111C51.9934 55.4124 52.5176 55.535 52.9854 55.6785C53.212 55.748 53.4107 55.8177 53.5524 55.87C53.6231 55.896 53.6792 55.9176 53.717 55.9324C53.7359 55.9398 53.7502 55.9454 53.7594 55.9491L53.7694 55.9532L53.7714 55.954C54.0773 56.0793 54.4292 55.938 54.5572 55.6383C54.6852 55.3384 54.541 54.9937 54.235 54.8682C53.989 55.4445 54.0009 55.4165 54.235 54.8682L54.2329 54.8674L54.2288 54.8657L54.2143 54.8598C54.2021 54.8549 54.1846 54.848 54.1623 54.8393C54.1179 54.8219 54.0543 54.7974 53.9753 54.7683C53.8178 54.7102 53.5972 54.6328 53.3442 54.5552C53.018 54.4552 52.6097 54.3458 52.2018 54.284L52.2017 53.0344Z" fill="white"/>
        <path d="M14.8331 8.1167L9.06383 5.52524C10.2418 3.67124 12.4319 2.34689 15.9822 1.69958C14.4656 3.25177 13.7824 5.70025 14.8331 8.1167Z" fill="#7BC69D"/>
        <path d="M3.60904 30.8376C3.60729 30.6113 3.60296 30.3853 3.59864 30.1599C3.58088 29.2342 3.56329 28.3171 3.72558 27.4213C4.11137 22.8825 5.39913 18.4338 7.66498 14.678L7.78336 14.4795C8.00127 14.1137 8.20663 13.7689 8.43432 13.4285L5.41071 10.5338C4.99603 11.3595 4.58454 12.1848 4.23356 13.0025C2.27996 17.6032 1.54034 22.5949 1.80371 27.3919C1.81679 28.312 1.94448 29.2176 2.06816 30.0947C2.10879 30.3828 2.14899 30.6679 2.18455 30.9495C2.3368 32.1548 2.61544 33.2761 2.96998 34.4559C3.60316 36.757 4.4976 38.9571 5.57742 40.9977C4.75041 38.7891 4.19311 36.5465 3.82965 34.2113C3.69432 33.1399 3.55054 32.0015 3.60904 30.8376Z" fill="#7BC69D"/>
        <path d="M10.7668 15.6616L13.3211 18.107C12.8237 18.8793 12.3662 19.6823 11.9664 20.5297C10.9979 22.6249 10.2487 24.8285 9.92939 27.1819C9.90895 27.35 9.88228 27.5189 9.8553 27.6898C9.79356 28.0807 9.73021 28.4818 9.73626 28.9071C9.73636 29.1536 9.72437 29.4156 9.71202 29.6853C9.69712 30.011 9.68169 30.3479 9.68645 30.6822L9.66154 31.5698C9.62794 31.8461 9.67023 32.181 9.70406 32.4488L9.865 34.2653L9.36691 32.4914C9.26565 32.2321 9.15593 31.9058 9.1221 31.6379L8.93626 30.7089C8.79271 30.1148 8.71659 29.5121 8.64047 28.9095C8.49691 28.3153 8.48821 27.7041 8.47952 27.0929C8.37732 24.6567 8.67125 22.1024 9.31924 19.6395C9.68016 18.2676 10.1334 16.9669 10.7668 15.6616Z" fill="#7BC69D"/>
    </g>
    <defs>
        <linearGradient id="paint0_linear_15332_116934" x1="43" y1="59.5001" x2="58.75" y2="44.5001" gradientUnits="userSpaceOnUse">
            <stop stop-color="#2E8570"/>
            <stop offset="1" stop-color="#21C187"/>
        </linearGradient>
        <clipPath id="clip0_15332_116934">
            <rect width="64" height="64" rx="12" fill="white"/>
        </clipPath>
    </defs>
</svg>
