<svg width="64" height="64" viewBox="0 0 64 64" fill="none" xmlns="http://www.w3.org/2000/svg">
<g clip-path="url(#clip0_17721_12056)">
<rect width="64" height="64" rx="12" fill="#395DDE"/>
<rect width="64" height="64" fill="url(#paint0_linear_17721_12056)"/>
<path d="M48.4869 35.813L48.4414 35.8607C48.4202 35.8827 48.3986 35.9045 48.3769 35.9262L35.9093 48.3737C33.7375 50.5421 30.2162 50.5421 28.0443 48.3737L24.6014 44.9365C24.3573 44.6937 24.3568 44.299 24.5997 44.0552C24.6712 43.9835 24.7591 43.9302 24.8558 43.9C28.546 42.7609 31.5446 41.4459 33.8512 39.9552C39.3445 36.4049 44.2231 35.0242 48.4869 35.813ZM45.8731 25.5735C50.4762 27.024 49.9389 30.4103 50 31.7452C44.9589 29.1019 38.8943 30.0707 31.8062 34.6517C26.5231 38.0661 22.0976 39.4739 18.5299 38.8749C14.9621 38.276 14.1595 33.9188 14 32.7609C17.9203 34.7431 23.1741 33.6054 29.7612 29.3483C35.8993 25.3813 41.2699 24.123 45.8731 25.5735ZM35.9093 15.6263L39.1444 18.8557C39.388 19.0988 39.3884 19.4936 39.1453 19.7373C39.0585 19.8242 38.9481 19.8836 38.8277 19.9078C34.1445 20.8513 30.3991 22.2303 27.5915 24.0448C22.7804 27.1542 18.6805 28.5994 15.292 28.3805L15.2923 28.3796L28.0443 15.6263C30.2162 13.4579 33.7375 13.4579 35.9093 15.6263Z" fill="white"/>
</g>
<defs>
<linearGradient id="paint0_linear_17721_12056" x1="32" y1="0" x2="32" y2="64" gradientUnits="userSpaceOnUse">
<stop stop-color="#3C62E1"/>
<stop offset="1" stop-color="#2842C4"/>
</linearGradient>
<clipPath id="clip0_17721_12056">
<rect width="64" height="64" rx="12" fill="white"/>
</clipPath>
</defs>
</svg>
